<?xml version="1.0" encoding="UTF-8"?><svg id="a" xmlns="http://www.w3.org/2000/svg" viewBox="0 0 24 24"><path id="b" d="M18.08083,13.69937c-1.76667,0-3.19917-1.4325-3.19917-3.19917,0-1.38583,.88167-2.56583,2.11375-3.01-.97667-.51417-2.08833-.80542-3.26833-.80542-3.88125,0-7.02708,3.14625-7.02708,7.02708,0,3.88167,3.14583,7.02792,7.02708,7.02792s7.0275-3.14625,7.0275-7.02792c0-.43958-.04083-.86958-.11834-1.2875-.58375,.77417-1.51083,1.275-2.55541,1.275M12,1.99979C6.47667,1.99979,2,6.47687,2,11.99979c0,5.52333,4.47667,10.00042,10,10.00042,.22833,0,.455-.00833,.67958-.02292-4.60542-.2775-8.25458-4.09875-8.25458-8.77333,0-4.85458,3.93542-8.79,8.79-8.79,4.6475,0,8.45167,3.6075,8.76792,8.17417,.01083-.19458,.01708-.39083,.01708-.58833,0-5.52292-4.47708-10-10-10"/></svg>