<svg xmlns="http://www.w3.org/2000/svg" viewBox="0 0 24 24"><path d="M21.58 15.697c-.269-1.328-.66-1.855-1.958-1.87-1.255.054-1.9.078-2.744 0-.957-.102-1.191.044-1.567.747l-1.152 2.314c-3.857-1.328-6.406-4.057-7.456-5.644L8.657 9.33c.546-.57.649-.956.39-1.87-.215-.81-.635-1.767-.781-2.992-.23-1.26-.196-1.45-1.567-1.499H4.35c-1.484-.01-2.397 1.162-2.348 2.622.068 2.104.547 4.364 1.177 5.653 1.835 3.78 5.155 7.426 10.584 9.028 1.44.424 3.374.986 5.854.663 1.47-.19 2.597-1.557 2.348-2.992l-.385-2.246z"/></svg>