<?xml version="1.0" encoding="UTF-8"?><svg id="a" xmlns="http://www.w3.org/2000/svg" viewBox="0 0 24 24"><path id="b" d="M21.57965,15.69661c-.26836-1.32759-.65928-1.85463-1.95784-1.86946-1.2547,.05354-1.89914,.07805-2.74356,0-.95731-.10257-1.19148,.04387-1.56756,.74701l-1.15213,2.31393c-3.85698-1.32759-6.40572-4.05696-7.45528-5.64387l1.95333-1.91397c.54639-.5709,.64896-.95667,.39028-1.86946-.21481-.81088-.63477-1.76754-.7812-2.99321-.22965-1.25986-.19546-1.45016-1.56692-1.49854h-2.34876c-1.48435-.01032-2.39715,1.1618-2.34812,2.62164,.06838,2.10428,.54703,4.36466,1.17664,5.65355,1.83592,3.77893,5.15554,7.42625,10.5846,9.02736,1.44048,.42447,3.37381,.98634,5.85417,.66379,1.46951-.1903,2.59712-1.55724,2.34812-2.99256l-.38576-2.2462Z"/></svg>