<svg xmlns="http://www.w3.org/2000/svg" viewBox="0 0 24 24"><path d="M2.005 8.252h2.912c1.667 0 3.646 1.244 3.646 3.745 0 2.29-1.979 3.745-3.646 3.745H2.005v-7.49zm4.466 3.745c0-1.554-1.243-1.865-2.388-1.865v3.73c1.13 0 2.388-.31 2.388-1.865zM9.369 8.252h2.077v2.813h.014l1.64-2.813h2.388l-2.176 3.434 2.388 4.056h-2.388L11.46 12.52v3.222H9.383l-.014-7.49zM16.28 8.252h3.01c1.357 0 2.29.806 2.29 1.866 0 .706-.24 1.314-.806 1.484v.014c.466.17 1.23.805 1.23 1.823 0 1.498-1.145 2.29-2.39 2.29h-3.32c-.014.013-.014-7.477-.014-7.477zm2.727 2.996c.353 0 .65-.226.65-.65a.631.631 0 0 0-.65-.65h-.636v1.314c0-.014.636-.014.636-.014zm.184 2.714c.41 0 .65-.325.65-.75s-.325-.748-.749-.748h-.72v1.498h.819z"/></svg>