<?xml version="1.0" encoding="UTF-8"?><svg id="a" xmlns="http://www.w3.org/2000/svg" viewBox="0 0 24 24"><g id="b" transform="translate(17.82 17.82) scale(0.14132813 0.14132813)"><path id="c" d="M2,8.25616h2.90755c1.6655,0,3.64149,1.24913,3.64149,3.7403,0,2.28653-1.97599,3.74035-3.64149,3.74035H2v-7.48065Zm4.46721,3.7403c0-1.55961-1.24913-1.87015-2.39242-1.87015v3.7403c1.14329,0,2.39242-.31049,2.39242-1.87015Z"/><path id="d" d="M9.36773,8.25616h2.08188v2.80874h.02115l1.64436-2.80874h2.39236l-2.18069,3.42981,2.39241,4.05787h-2.39241l-1.84895-3.22512h-.0212v3.22512h-2.08188v-7.48768h-.00703Z"/><path id="e" d="M16.28366,8.25616h3.01344c1.35497,0,2.28653,.81155,2.28653,1.87015,0,.70571-.24699,1.31262-.81155,1.48909v.02115c.46575,.17642,1.22793,.8116,1.22793,1.82077,0,1.49612-1.14324,2.28653-2.39237,2.28653h-3.32397v-7.48768Zm2.71707,2.99224c.35283,0,.65629-.22584,.65629-.65629,0-.40226-.30345-.65634-.65629-.65634h-.63519v1.31262h.63519Zm.18345,2.70998c.41638,0,.65634-.33168,.65634-.74806s-.33168-.74806-.74806-.74806h-.72691v1.49612h.81864Z"/></g></svg>