<?xml version="1.0" encoding="utf-8"?>
<!-- Generator: Adobe Illustrator 26.2.0, SVG Export Plug-In . SVG Version: 6.00 Build 0)  -->
<svg version="1.1" id="a" xmlns="http://www.w3.org/2000/svg" xmlns:xlink="http://www.w3.org/1999/xlink" x="0px" y="0px"
	 viewBox="0 0 24 24" style="enable-background:new 0 0 24 24;" xml:space="preserve">
<g id="b" transform="translate(17.82 17.82) scale(0.14132813 0.14132813)">
	<path id="c" d="M-111.9-67.7h20.6c11.8,0,25.8,8.8,25.8,26.5c0,16.2-14,26.5-25.8,26.5h-20.6V-67.7z M-80.3-41.2
		c0-11-8.8-13.2-16.9-13.2V-28C-89.2-28-80.3-30.2-80.3-41.2z"/>
	<path id="d" d="M-59.8-67.7h14.7v19.9h0.1l11.6-19.9h16.9l-15.4,24.3l16.9,28.7h-16.9l-13.1-22.8H-45v22.8h-14.7L-59.8-67.7
		C-59.8-67.7-59.8-67.7-59.8-67.7z"/>
	<path id="e" d="M-10.9-67.7h21.3c9.6,0,16.2,5.7,16.2,13.2c0,5-1.7,9.3-5.7,10.5v0.1c3.3,1.2,8.7,5.7,8.7,12.9
		c0,10.6-8.1,16.2-16.9,16.2h-23.5C-10.9-14.7-10.9-67.7-10.9-67.7z M8.4-46.5c2.5,0,4.6-1.6,4.6-4.6c0-2.8-2.1-4.6-4.6-4.6H3.9v9.3
		C3.9-46.5,8.4-46.5,8.4-46.5z M9.7-27.3c2.9,0,4.6-2.3,4.6-5.3s-2.3-5.3-5.3-5.3H3.9v10.6C3.9-27.3,9.7-27.3,9.7-27.3z"/>
</g>
</svg>
