<svg xmlns="http://www.w3.org/2000/svg" viewBox="0 0 24 24"><path d="M7.14 2.338c-.621.442-1.043 1.263-.863 2.041 0 .011 0 .022.01.032A98.86 98.86 0 0 0 7.97 9.79c.915-.495 2.64-1.4 2.64-1.4.864-.463 1.18-1.547.727-2.41L9.75 2.95A1.74 1.74 0 0 0 7.392 2.2l-.253.137zM19.967 17.713l-2.262-2.547a1.757 1.757 0 0 0-2.494-.137S13.779 16.366 13 17.07c1.873 1.536 2.81 2.24 4.409 3.44.01.01.021.01.032.022.662.43 1.567.305 2.189-.127.052-.042.105-.073.157-.115l.063-.063a1.81 1.81 0 0 0 .116-2.515z"/><path d="M12.506 17.68c-.873-.715-1.936-1.694-3.157-3.45-1.22-1.758-1.757-3.105-2.125-4.179a114.413 114.413 0 0 1-1.695-5.42 2.838 2.838 0 0 1-.063-.841c-2.789 3.23-2.4 8.419.6 12.765 2.999 4.335 7.682 6.493 11.638 4.946a2.232 2.232 0 0 1-.705-.316c-1.673-1.263-2.609-1.968-4.493-3.504z"/></svg>