<svg xmlns="http://www.w3.org/2000/svg" viewBox="0 0 24 24"><path d="M13.115 13.881a.87.87 0 0 0-1.233 0c-.891.894-6.48 6.498-7.233 7.247.873.931 2.455 1.157 3.563.48l8.027-4.6c-.74-.738-2.373-2.373-3.124-3.127zM11.882 10.182a.87.87 0 0 0 1.233 0l1.875-1.879-.002-.001 1.276-1.275-8.02-4.618c-1.131-.708-2.76-.465-3.637.484.735.73 6.4 6.412 7.275 7.289zM10.653 12.65a.876.876 0 0 0 0-1.237l-5.02-5.035-1.804-1.8c-.013.105-.022.22-.02.331l.001 14.212c.005.133.024.288.045.422 1.187-1.162 5.557-5.63 6.798-6.894zM20.495 9.464l-2.668-1.537c-.781.776-2.683 2.688-3.481 3.487a.875.875 0 0 0 0 1.236c.803.8 2.672 2.683 3.458 3.463l2.666-1.528c2.016-1 2.031-4.104.025-5.121z"/></svg>