<?xml version="1.0" encoding="UTF-8"?><svg id="a" xmlns="http://www.w3.org/2000/svg" viewBox="0 0 24 24"><path id="b" d="M9.63144,4.10568h6.31521c1.26329,0,2.48398,.34746,3.54706,.98945-1.07343-1.70507-2.96836-2.83144-5.12616-2.83144h-6.31521c-3.34746,0-6.05233,2.70487-6.05233,6.05233,0,1.09473,.29452,2.12617,.8002,3.01034-.01095-.12657-.01095-.25254-.01095-.37911,0-3.76795,3.07363-6.84158,6.84219-6.84158Z"/><path id="c" d="M20.17768,6.6213c-1.09412-1.06308-2.5783-1.72637-4.23103-1.72637h-6.31521c-3.34746,0-6.05233,2.70547-6.05233,6.05233,0,.57931,.08398,1.14767,.24158,1.69473,.28418,.95781,.8002,1.85233,1.52677,2.56856l6.12596,6.26288c.12596,.13631,.26288,.26288,.52576,.26288,.25314,0,.52637-.12657,.52637-.46308v-4.27363h3.32616c3.31582,0,6.09432-2.63124,6.14726-5.94706,.03164-1.73671-.67363-3.30487-1.8213-4.43124Z"/></svg>