<?xml version="1.0" encoding="UTF-8"?><svg id="a" xmlns="http://www.w3.org/2000/svg" viewBox="0 0 24 24"><path id="b" d="M9.74987,4.5004h5.99945c1.20012,0,2.35978,.33009,3.36971,.93998-1.01976-1.61982-2.81994-2.68987-4.86986-2.68987h-5.99945c-3.18009,0-5.74971,2.56962-5.74971,5.74971,0,1.03999,.2798,2.01986,.76019,2.85983-.01041-.12024-.01041-.23991-.01041-.36015,0-3.57955,2.91995-6.4995,6.50008-6.4995Z"/><path id="c" d="M19.7688,6.89024c-1.03941-1.00993-2.44938-1.64005-4.01948-1.64005h-5.99945c-3.18009,0-5.74971,2.5702-5.74971,5.74971,0,.55034,.07978,1.09028,.2295,1.60999,.26997,.90992,.76019,1.75971,1.45043,2.44013l5.81966,5.94973c.11967,.12949,.24974,.24974,.49947,.24974,.24049,0,.50005-.12024,.50005-.43993v-4.05995h3.15986c3.15003,0,5.7896-2.49968,5.8399-5.6497,.03006-1.64988-.63995-3.13962-1.73023-4.20967Z"/></svg>