<?xml version="1.0" encoding="UTF-8"?><svg id="a" xmlns="http://www.w3.org/2000/svg" viewBox="0 0 24 24"><path id="b" d="M13.11521,13.88121c-.34-.34121-.89333-.34121-1.23273,0-.89152,.89333-6.48123,6.4982-7.23396,7.24729,.87334,.93091,2.45516,1.15637,3.56365,.48l8.02668-4.60001c-.74061-.73818-2.37273-2.37394-3.12364-3.12728Z"/><path id="c" d="M11.88248,10.18181c.34,.34121,.89273,.34121,1.23273,0l1.87455-1.87879-.00182-.00121,1.27576-1.27455L8.24369,2.40906c-1.13091-.70788-2.76001-.46546-3.63698,.48364,.73515,.73091,6.39941,6.41214,7.27577,7.28911Z"/><path id="d" d="M10.65278,12.64908c.34061-.34182,.34061-.89455,0-1.23637L5.63217,6.37816l-1.80303-1.80061c-.01273,.10545-.02182,.22-.02,.33152l.00121,14.21155c.00424,.13333,.02364,.28848,.04424,.42242,1.18728-1.16243,5.55698-5.6291,6.7982-6.89396Z"/><path id="e" d="M20.49523,9.46362l-2.66789-1.53637c-.78182,.77576-2.68304,2.68728-3.48183,3.48668-.34121,.34182-.34121,.89455,0,1.23637,.80364,.8,2.67213,2.68243,3.4588,3.46243l2.66607-1.52728c2.01576-1,2.03091-4.10425,.02485-5.12183Z"/></svg>