<?xml version="1.0" encoding="UTF-8"?><svg id="a" xmlns="http://www.w3.org/2000/svg" viewBox="0 0 24 24"><path id="b" d="M7.13934,2.33812c-.62063,.44187-1.04188,1.2625-.8625,2.04125,0,.01063,0,.02125,.01,.03188,.55812,1.93625,.895,3.06188,1.68375,5.37751,.91563-.495,2.64125-1.4,2.64125-1.4,.86313-.46313,1.17875-1.54688,.72625-2.40938l-1.58875-3.03126c-.4525-.8625-1.505-1.19938-2.3575-.74688l-.2525,.13688Z"/><path id="c" d="M19.96748,17.71253l-2.2625-2.54688c-.6525-.73625-1.76813-.78938-2.49438-.13688,0,0-1.43125,1.33688-2.20938,2.04188,1.87313,1.53625,2.80938,2.24126,4.40876,3.44063,.01063,.01062,.02125,.01062,.03188,.02125,.6625,.43125,1.5675,.305,2.18875-.12625,.0525-.04188,.105-.07375,.1575-.11563l.06313-.06312c.71563-.67375,.75813-1.78938,.11625-2.51501Z"/><path id="d" d="M12.50621,17.68065c-.87313-.71563-1.93626-1.69438-3.15688-3.45126-1.22063-1.7575-1.7575-3.10438-2.12563-4.17814-.77875-2.30438-1.11563-3.44063-1.69438-5.41939-.06312-.27313-.08437-.56813-.06312-.84188-2.78876,3.23063-2.39938,8.41876,.59999,12.76502,2.99875,4.33501,7.68189,6.49252,11.63814,4.94564-.2525-.06313-.48375-.16813-.705-.31563-1.67313-1.26313-2.60938-1.96813-4.49313-3.50438Z"/></svg>