<svg xmlns="http://www.w3.org/2000/svg" viewBox="0 0 24 24"><path d="M9.631 4.106h6.316a6.85 6.85 0 0 1 3.547.99 6.045 6.045 0 0 0-5.126-2.832H8.052A6.046 6.046 0 0 0 2 8.316c0 1.095.295 2.126.8 3.01-.01-.126-.01-.252-.01-.379 0-3.768 3.073-6.841 6.841-6.841z"/><path d="M20.178 6.621a6.045 6.045 0 0 0-4.231-1.726H9.63a6.047 6.047 0 0 0-5.81 7.747c.284.958.8 1.852 1.526 2.569l6.126 6.262c.126.137.263.263.526.263.253 0 .527-.126.527-.463V17h3.326c3.316 0 6.094-2.632 6.147-5.947a6.03 6.03 0 0 0-1.821-4.432z"/></svg>