<?xml version="1.0" encoding="UTF-8"?>
<svg id="Layer_7" data-name="Layer 7" xmlns="http://www.w3.org/2000/svg" viewBox="0 0 24 24">
  <path id="path" d="M19.2,15.753l-3.447,3.447H4.8V4.8h14.4V15.753ZM4.8,3c-.99,0-1.8,.81-1.8,1.8v14.4c0,.99,.81,1.8,1.8,1.8h11.7l4.5-4.5V4.8c0-.99-.81-1.8-1.8-1.8H4.8Z"/>
  <path id="path_16" data-name="path 16" d="M9.1224,14.85v-4.9248l-.9888,.72-.6336-.9696,1.9296-1.392h.9504v6.5664h-1.2576Zm4.9668,.1536c-.3264,0-.6528-.0642-.9792-.192-.3198-.1278-.6018-.3234-.8448-.5856-.243-.2622-.4128-.5952-.5088-.9984l1.1328-.4416c.0702,.3138,.2082,.5694,.4128,.768,.2046,.192,.4644,.288,.7776,.288,.3012,0,.5538-.1026,.7584-.3072,.2112-.2046,.3168-.4638,.3168-.7776,0-.3072-.099-.5634-.2976-.768-.1986-.2112-.4578-.3168-.7776-.3168-.198,0-.3744,.0414-.528,.1248-.1536,.0834-.285,.189-.3936,.3168l-1.2192-.5472,.3744-3.2832h3.7056v1.104h-2.6592l-.24,1.536,.0768,.0192c.1284-.1086,.285-.2016,.4704-.2784,.192-.0768,.4158-.1152,.672-.1152,.3648,0,.7044,.093,1.0176,.2784,.3138,.1854,.5664,.4446,.7584,.7776,.1986,.3264,.2976,.7104,.2976,1.152,0,.435-.099,.8226-.2976,1.1616-.198,.339-.4734,.6048-.8256,.7968-.3456,.192-.7458,.288-1.2,.288Z"/>
</svg>