<?xml version="1.0" encoding="UTF-8"?>
<svg id="Layer_7" data-name="Layer 7" xmlns="http://www.w3.org/2000/svg" viewBox="0 0 24 24">
  <path id="path" d="M19.2,15.753l-3.447,3.447H4.8V4.8h14.4V15.753ZM4.8,3c-.99,0-1.8,.81-1.8,1.8v14.4c0,.99,.81,1.8,1.8,1.8h11.7l4.5-4.5V4.8c0-.99-.81-1.8-1.8-1.8H4.8Z"/>
  <path id="path_10" data-name="path 10" d="M11.8212,15.042l-.9792-.672c.2238-.3198,.4482-.6366,.672-.9504,.2304-.3198,.4578-.6366,.6816-.9504l-.0576-.0576c-.147,.0642-.3138,.096-.4992,.096-.333,0-.6498-.0894-.9504-.2688s-.5472-.429-.7392-.7488c-.192-.3264-.288-.6978-.288-1.1136,0-.4416,.1086-.8286,.3264-1.1616,.2178-.339,.5022-.6048,.8544-.7968,.3522-.192,.7296-.288,1.1328-.288,.3774,0,.717,.0702,1.0176,.2112,.3072,.1344,.5634,.3168,.768,.5472,.1854,.2046,.3264,.4386,.4224,.7008,.1026,.2622,.1536,.5406,.1536,.8352,0,.4416-.0894,.8448-.2688,1.2096-.1728,.3648-.3936,.7422-.6624,1.1328-.2622,.3774-.528,.7584-.7968,1.1424-.2622,.3774-.525,.7554-.7872,1.1328Zm.1824-3.5808c.192,0,.3714-.045,.5376-.1344,.1662-.096,.3006-.2238,.4032-.384,.1086-.1662,.1632-.3582,.1632-.576s-.0546-.4062-.1632-.5664c-.1026-.1602-.237-.285-.4032-.3744-.1662-.096-.3456-.144-.5376-.144s-.3744,.048-.5472,.144c-.1662,.0894-.3042,.2142-.4128,.3744-.1026,.1602-.1536,.3486-.1536,.5664s.051,.4098,.1536,.576c.1086,.1602,.2466,.288,.4128,.384,.1728,.0894,.3552,.1344,.5472,.1344Z"/>
</svg>