<svg data-name="Layer 7" xmlns="http://www.w3.org/2000/svg" viewBox="0 0 24 24"><path d="M19.2 15.753L15.753 19.2H4.8V4.8h14.4v10.953zM4.8 3C3.81 3 3 3.81 3 4.8v14.4c0 .99.81 1.8 1.8 1.8h11.7l4.5-4.5V4.8c0-.99-.81-1.8-1.8-1.8H4.8z"/><path data-name="path 26" d="M7.019 14.85v-1.142l.23-.23.519-.52.643-.642c.224-.224.425-.43.605-.615.179-.185.31-.32.393-.403.224-.243.381-.448.47-.614.09-.167.135-.359.135-.576a.764.764 0 0 0-.24-.557c-.16-.16-.384-.24-.672-.24s-.512.083-.672.25a1.4 1.4 0 0 0-.336.556l-1.133-.47c.07-.237.195-.47.375-.701.185-.23.425-.422.72-.576.3-.16.655-.24 1.065-.24.448 0 .832.086 1.152.26.327.172.576.402.749.69.18.288.269.612.269.97 0 .41-.1.787-.298 1.133a4.013 4.013 0 0 1-.739.95c-.115.115-.25.247-.403.394l-.451.451c-.147.154-.285.295-.413.422-.128.122-.228.218-.298.288l.029.058h2.66v1.104h-4.36zm7.61.154a2.67 2.67 0 0 1-.98-.192 2.308 2.308 0 0 1-.844-.586 2.174 2.174 0 0 1-.51-.998l1.134-.442c.07.314.207.57.412.768.205.192.464.288.778.288.3 0 .553-.103.758-.307.212-.205.317-.464.317-.778 0-.307-.1-.563-.297-.768-.199-.211-.458-.317-.778-.317-.199 0-.374.042-.528.125s-.285.19-.394.317l-1.219-.547.375-3.283h3.705v1.104H13.9l-.24 1.536.077.019c.128-.109.284-.202.47-.279.192-.076.416-.115.672-.115.365 0 .704.093 1.018.279.313.185.566.444.758.777.198.327.298.71.298 1.152 0 .435-.1.823-.298 1.162a2.11 2.11 0 0 1-.825.797 2.43 2.43 0 0 1-1.2.288z"/></svg>