<?xml version="1.0" encoding="UTF-8"?>
<svg id="Layer_7" data-name="Layer 7" xmlns="http://www.w3.org/2000/svg" viewBox="0 0 24 24">
  <path id="path" d="M19.2,15.753l-3.447,3.447H4.8V4.8h14.4V15.753ZM4.8,3c-.99,0-1.8,.81-1.8,1.8v14.4c0,.99,.81,1.8,1.8,1.8h11.7l4.5-4.5V4.8c0-.99-.81-1.8-1.8-1.8H4.8Z"/>
  <path id="path_30" data-name="path 30" d="M7.0518,14.85v-1.1424l.2304-.2304c.1404-.141,.3132-.3138,.5184-.5184l.6432-.6432c.2238-.2238,.4254-.429,.6048-.6144,.1788-.1854,.3102-.3198,.3936-.4032,.2238-.243,.3804-.4482,.4704-.6144,.0894-.1662,.1344-.3582,.1344-.576,0-.2112-.0804-.3966-.24-.5568-.1602-.1602-.384-.24-.672-.24s-.5124,.0834-.672,.2496c-.1602,.1662-.2724,.3522-.336,.5568l-1.1328-.4704c.0702-.237,.195-.4704,.3744-.7008,.1854-.2304,.4254-.4224,.72-.576,.3006-.1602,.6558-.24,1.0656-.24,.4476,0,.8316,.0864,1.152,.2592,.3264,.1728,.576,.4032,.7488,.6912,.1788,.288,.2688,.6114,.2688,.9696,0,.4098-.0996,.7872-.2976,1.1328-.192,.3456-.4386,.6624-.7392,.9504-.1152,.1152-.2496,.2466-.4032,.3936-.1476,.147-.2976,.2976-.4512,.4512-.1476,.1536-.285,.2946-.4128,.4224-.1284,.1218-.2274,.2178-.2976,.288l.0288,.0576h2.6592v1.104H7.0518Zm7.4364,.192l-.9792-.672c.2244-.3198,.4482-.6366,.672-.9504,.2304-.3198,.4578-.6366,.6816-.9504l-.0576-.0576c-.147,.0642-.3132,.096-.4992,.096-.3324,0-.6492-.0894-.9504-.2688-.3006-.1794-.5472-.429-.7392-.7488-.192-.3264-.288-.6978-.288-1.1136,0-.4416,.1092-.8286,.3264-1.1616,.2178-.339,.5028-.6048,.8544-.7968,.3522-.192,.7296-.288,1.1328-.288,.378,0,.717,.0702,1.0176,.2112,.3072,.1344,.5634,.3168,.768,.5472,.186,.2046,.3264,.4386,.4224,.7008,.1026,.2622,.1536,.5406,.1536,.8352,0,.4416-.0894,.8448-.2688,1.2096-.1728,.3648-.3936,.7422-.6624,1.1328-.2622,.3774-.528,.7584-.7968,1.1424-.2622,.3774-.5244,.7554-.7872,1.1328Zm.1824-3.5808c.192,0,.3714-.045,.5376-.1344,.1668-.096,.3012-.2238,.4032-.384,.1092-.1662,.1632-.3582,.1632-.576s-.054-.4062-.1632-.5664c-.102-.1602-.2364-.285-.4032-.3744-.1662-.096-.3456-.144-.5376-.144s-.3744,.048-.5472,.144c-.1662,.0894-.3036,.2142-.4128,.3744-.102,.1602-.1536,.3486-.1536,.5664s.0516,.4098,.1536,.576c.1092,.1602,.2466,.288,.4128,.384,.1728,.0894,.3552,.1344,.5472,.1344Z"/>
</svg>