<svg data-name="Layer 7" xmlns="http://www.w3.org/2000/svg" viewBox="0 0 24 24"><path d="M19.2 15.753L15.753 19.2H4.8V4.8h14.4v10.953zM4.8 3C3.81 3 3 3.81 3 4.8v14.4c0 .99.81 1.8 1.8 1.8h11.7l4.5-4.5V4.8c0-.99-.81-1.8-1.8-1.8H4.8z"/><path data-name="path 17" d="M9.179 14.85V9.925l-.989.72-.634-.97 1.93-1.391h.95v6.566H9.18zm4.949.154c-.365 0-.698-.065-.999-.192a2.353 2.353 0 0 1-.749-.528c-.41-.43-.614-.954-.614-1.575 0-.441.086-.845.26-1.21a9 9 0 0 1 .671-1.132l.787-1.133c.27-.384.534-.765.797-1.142l.98.672-.682.95c-.225.314-.448.63-.672.95l.057.058c.147-.064.314-.096.5-.096.332 0 .649.09.95.269a2.122 2.122 0 0 1 1.027 1.862c0 .435-.109.823-.326 1.162a2.326 2.326 0 0 1-.855.797 2.33 2.33 0 0 1-1.132.288zm-.03-1.152c.199 0 .381-.045.548-.135.166-.096.3-.224.403-.384.109-.166.163-.355.163-.566a.984.984 0 0 0-.163-.567 1.038 1.038 0 0 0-.413-.384 1.059 1.059 0 0 0-.537-.144c-.186 0-.365.048-.538.144-.167.09-.304.218-.413.384-.102.16-.153.349-.153.567 0 .211.05.4.153.566.109.16.246.288.413.384.166.09.346.135.538.135z"/></svg>