<svg data-name="Layer 7" xmlns="http://www.w3.org/2000/svg" viewBox="0 0 24 24"><path d="M19.2 15.753L15.753 19.2H4.8V4.8h14.4v10.953zM4.8 3C3.81 3 3 3.81 3 4.8v14.4c0 .99.81 1.8 1.8 1.8h11.7l4.5-4.5V4.8c0-.99-.81-1.8-1.8-1.8H4.8z"/><path data-name="path 9" d="M12.005 15.004c-.468 0-.88-.087-1.239-.26a2.207 2.207 0 0 1-.845-.71 1.793 1.793 0 0 1-.298-1.008c0-.384.103-.71.308-.98.205-.275.435-.482.69-.623v-.077a2.17 2.17 0 0 1-.546-.557 1.45 1.45 0 0 1-.23-.806c0-.352.092-.666.278-.941.186-.281.442-.502.768-.662.327-.167.697-.25 1.114-.25.416 0 .783.083 1.103.25.327.16.583.38.768.662.192.275.289.589.289.94 0 .301-.08.57-.24.807a1.97 1.97 0 0 1-.548.557v.077c.263.14.496.348.701.624.205.269.307.595.307.979 0 .371-.102.707-.307 1.008a2.13 2.13 0 0 1-.835.71c-.352.173-.765.26-1.238.26zm0-4.128c.262 0 .483-.074.662-.221a.736.736 0 0 0 .278-.595.693.693 0 0 0-.278-.586c-.18-.147-.4-.22-.662-.22-.27 0-.496.073-.682.22a.704.704 0 0 0-.27.586c0 .243.09.441.27.595.186.147.412.22.682.22zm0 2.966c.326 0 .591-.086.797-.26a.838.838 0 0 0 .316-.68.818.818 0 0 0-.316-.663c-.212-.173-.477-.26-.797-.26-.32 0-.59.087-.807.26a.82.82 0 0 0-.316.662.84.84 0 0 0 .316.682c.212.173.48.259.807.259z"/></svg>