<svg data-name="Layer 7" xmlns="http://www.w3.org/2000/svg" viewBox="0 0 24 24"><path d="M19.2 15.753L15.753 19.2H4.8V4.8h14.4v10.953zM4.8 3C3.81 3 3 3.81 3 4.8v14.4c0 .99.81 1.8 1.8 1.8h11.7l4.5-4.5V4.8c0-.99-.81-1.8-1.8-1.8H4.8z"/><path data-name="path 11" d="M8.747 14.85V9.925l-.988.72-.634-.97 1.93-1.391h.95v6.566H8.747zm5.334.154c-.563 0-1.053-.151-1.468-.452-.41-.3-.727-.71-.95-1.228-.225-.519-.337-1.104-.337-1.757s.112-1.239.336-1.757c.224-.518.54-.928.95-1.229.416-.3.906-.451 1.47-.451s1.049.15 1.459.451c.415.3.736.71.96 1.229.223.518.336 1.104.336 1.757s-.113 1.238-.336 1.757a2.892 2.892 0 0 1-.96 1.228c-.41.301-.896.452-1.46.452zm0-1.181c.314 0 .583-.1.807-.298s.393-.467.509-.806c.121-.34.182-.723.182-1.152 0-.435-.06-.823-.182-1.162-.116-.339-.285-.605-.51-.797a1.173 1.173 0 0 0-.806-.297 1.16 1.16 0 0 0-.796.297c-.224.192-.397.458-.519.797a3.605 3.605 0 0 0-.173 1.162c0 .429.058.813.173 1.152.122.339.295.608.519.806.223.199.49.298.796.298z"/></svg>