<svg data-name="Layer 7" xmlns="http://www.w3.org/2000/svg" viewBox="0 0 24 24"><path d="M19.2 15.753L15.753 19.2H4.8V4.8h14.4v10.953zM4.8 3C3.81 3 3 3.81 3 4.8v14.4c0 .99.81 1.8 1.8 1.8h11.7l4.5-4.5V4.8c0-.99-.81-1.8-1.8-1.8H4.8z"/><path data-name="path 28" d="M7.16 14.85v-1.142l.23-.23.518-.52.643-.642c.225-.224.426-.43.605-.615.18-.185.31-.32.394-.403.224-.243.38-.448.47-.614a1.19 1.19 0 0 0 .134-.576.764.764 0 0 0-.24-.557c-.16-.16-.384-.24-.672-.24s-.511.083-.672.25c-.16.166-.271.352-.336.556l-1.132-.47c.07-.237.195-.47.374-.701.186-.23.426-.422.72-.576.301-.16.656-.24 1.066-.24.448 0 .832.086 1.152.26.326.172.576.402.748.69.18.288.27.612.27.97 0 .41-.1.787-.298 1.133a3.997 3.997 0 0 1-.74.95c-.115.115-.25.247-.403.394l-.451.451c-.147.154-.284.295-.413.422-.128.122-.227.218-.297.288l.028.058h2.66v1.104H7.159zm6.649.154l-1.056-.586 2.736-4.896-.038-.058h-3.015v-1.18H16.9v1.238c-.512.909-1.027 1.821-1.545 2.736-.519.915-1.034 1.83-1.546 2.746z"/></svg>