<svg data-name="Layer 7" xmlns="http://www.w3.org/2000/svg" viewBox="0 0 24 24"><path d="M19.2 15.753L15.753 19.2H4.8V4.8h14.4v10.953zM4.8 3C3.81 3 3 3.81 3 4.8v14.4c0 .99.81 1.8 1.8 1.8h11.7l4.5-4.5V4.8c0-.99-.81-1.8-1.8-1.8H4.8z"/><path data-name="path 3" d="M9.832 14.85v-1.142l.23-.23a372.27 372.27 0 0 1 1.162-1.162c.223-.224.425-.43.604-.615.18-.185.31-.32.394-.403a3.3 3.3 0 0 0 .47-.614c.09-.167.134-.359.134-.576a.764.764 0 0 0-.24-.557c-.16-.16-.384-.24-.671-.24-.289 0-.513.083-.673.25-.16.166-.272.352-.335.556l-1.134-.47c.071-.237.196-.47.375-.701.186-.23.426-.422.72-.576.301-.16.656-.24 1.065-.24.449 0 .833.086 1.152.26.327.172.577.402.75.69.179.288.268.612.268.97 0 .41-.099.787-.297 1.133a4.013 4.013 0 0 1-.74.95c-.114.115-.25.247-.403.394l-.451.451a27.1 27.1 0 0 1-.412.422c-.129.122-.228.218-.299.288l.03.058h2.659v1.104H9.832z"/></svg>