<svg data-name="Layer 7" xmlns="http://www.w3.org/2000/svg" viewBox="0 0 24 24"><path d="M19.2 15.753L15.753 19.2H4.8V4.8h14.4v10.953zM4.8 3C3.81 3 3 3.81 3 4.8v14.4c0 .99.81 1.8 1.8 1.8h11.7l4.5-4.5V4.8c0-.99-.81-1.8-1.8-1.8H4.8z"/><path data-name="path 1" d="M9.964 15.004a2.613 2.613 0 0 1-1.45-.423c-.436-.288-.736-.723-.902-1.305l1.19-.47c.16.652.547.978 1.162.978.268 0 .505-.08.71-.24a.792.792 0 0 0 .307-.643.778.778 0 0 0-.326-.662c-.218-.16-.506-.24-.864-.24h-.567v-1.143h.519c.262 0 .495-.067.7-.201.205-.135.308-.343.308-.624a.686.686 0 0 0-.24-.538c-.154-.14-.359-.211-.615-.211-.282 0-.499.077-.652.23-.154.154-.26.324-.317.51L7.784 9.55c.077-.218.205-.435.384-.653.18-.218.413-.4.701-.547.288-.147.634-.221 1.037-.221.422 0 .79.077 1.104.23.32.154.57.365.749.634.179.262.269.56.269.893 0 .377-.09.688-.27.931-.172.243-.361.416-.566.518v.077c.301.122.554.317.759.586.211.269.317.608.317 1.017 0 .378-.096.717-.288 1.018s-.461.538-.807.71c-.345.173-.749.26-1.21.26zm4.708-.154V9.925l-.988.72-.634-.97 1.93-1.391h.95v6.566h-1.258z"/></svg>