<?xml version="1.0" encoding="UTF-8"?>
<svg id="Layer_7" data-name="Layer 7" xmlns="http://www.w3.org/2000/svg" viewBox="0 0 24 24">
  <path id="path" d="M19.2,15.753l-3.447,3.447H4.8V4.8h14.4V15.753ZM4.8,3c-.99,0-1.8,.81-1.8,1.8v14.4c0,.99,.81,1.8,1.8,1.8h11.7l4.5-4.5V4.8c0-.99-.81-1.8-1.8-1.8H4.8Z"/>
  <path id="path_29" data-name="path 29" d="M7.014,14.85v-1.1424c.0132-.0126,.09-.0894,.2304-.2304l.5184-.5184c.2112-.2112,.426-.4254,.6432-.6432,.2238-.2238,.4254-.429,.6048-.6144,.1794-.1854,.3102-.3198,.3936-.4032,.2238-.243,.381-.4482,.4704-.6144,.09-.1662,.1344-.3582,.1344-.576,0-.2112-.0798-.3966-.24-.5568-.1596-.1602-.384-.24-.672-.24s-.5118,.0834-.672,.2496c-.1596,.1662-.2718,.3522-.336,.5568l-1.1328-.4704c.0708-.237,.195-.4704,.3744-.7008,.186-.2304,.426-.4224,.72-.576,.3006-.1602,.6558-.24,1.0656-.24,.4482,0,.8322,.0864,1.152,.2592,.3264,.1728,.576,.4032,.7488,.6912,.1794,.288,.2688,.6114,.2688,.9696,0,.4098-.099,.7872-.2976,1.1328-.192,.3456-.438,.6624-.7392,.9504-.1152,.1152-.2496,.2466-.4032,.3936l-.4512,.4512c-.147,.1536-.2844,.2946-.4128,.4224-.1278,.1218-.2268,.2178-.2976,.288l.0288,.0576h2.6592v1.104H7.014Zm7.6578,.1536c-.4674,0-.8802-.0864-1.2384-.2592-.3588-.1794-.6402-.4158-.8448-.7104-.1986-.3006-.2976-.6366-.2976-1.008,0-.384,.102-.7104,.3072-.9792,.2046-.2754,.435-.483,.6912-.624v-.0768c-.2052-.141-.3876-.3264-.5472-.5568-.1536-.237-.2304-.5058-.2304-.8064,0-.3522,.0924-.6654,.2784-.9408,.1854-.2814,.4416-.5022,.768-.6624,.3264-.1662,.6972-.2496,1.1136-.2496,.4158,0,.7836,.0834,1.104,.2496,.3264,.1602,.582,.381,.768,.6624,.192,.2754,.288,.5886,.288,.9408,0,.3006-.0804,.5694-.24,.8064-.1536,.2304-.336,.4158-.5472,.5568v.0768c.2622,.141,.4956,.3486,.7008,.624,.2046,.2688,.3072,.5952,.3072,.9792,0,.3714-.1026,.7074-.3072,1.008-.1986,.2946-.477,.531-.8352,.7104-.3522,.1728-.765,.2592-1.2384,.2592Zm0-4.128c.2622,0,.483-.0738,.6624-.2208,.1854-.1536,.2784-.3522,.2784-.5952,0-.2496-.093-.4446-.2784-.5856-.1794-.147-.4002-.2208-.6624-.2208-.2688,0-.4962,.0738-.6816,.2208-.1794,.141-.2688,.336-.2688,.5856,0,.243,.0894,.4416,.2688,.5952,.1854,.147,.4128,.2208,.6816,.2208Zm0,2.9664c.3264,0,.5916-.0864,.7968-.2592,.2112-.1728,.3168-.4002,.3168-.6816,0-.2688-.1056-.4896-.3168-.6624-.2112-.1728-.477-.2592-.7968-.2592-.3204,0-.5892,.0864-.8064,.2592-.2112,.1728-.3168,.3936-.3168,.6624,0,.2814,.1056,.5088,.3168,.6816,.2112,.1728,.48,.2592,.8064,.2592Z"/>
</svg>