<svg data-name="Layer 7" xmlns="http://www.w3.org/2000/svg" viewBox="0 0 24 24"><path d="M19.2 15.753L15.753 19.2H4.8V4.8h14.4v10.953zM4.8 3C3.81 3 3 3.81 3 4.8v14.4c0 .99.81 1.8 1.8 1.8h11.7l4.5-4.5V4.8c0-.99-.81-1.8-1.8-1.8H4.8z"/><path data-name="path 20" d="M9.202 14.85V9.925l-.989.72-.633-.97 1.93-1.391h.95v6.566H9.202zm4.7.192l-.979-.672c.224-.32.448-.637.672-.95l.682-.95-.058-.058a1.239 1.239 0 0 1-.499.096c-.333 0-.65-.09-.95-.27a2.125 2.125 0 0 1-.74-.748 2.155 2.155 0 0 1-.287-1.114c0-.441.108-.828.326-1.161.217-.34.502-.605.854-.797.352-.192.73-.288 1.133-.288.378 0 .717.07 1.018.211a2.183 2.183 0 0 1 1.19 1.248c.102.262.154.54.154.835 0 .442-.09.845-.269 1.21a8.218 8.218 0 0 1-.662 1.133l-.797 1.142-.787 1.133zm.183-3.58c.192 0 .37-.046.538-.135.166-.096.3-.224.403-.384.108-.166.163-.358.163-.576s-.055-.406-.163-.567a1.078 1.078 0 0 0-.403-.374c-.167-.096-.346-.144-.538-.144s-.374.048-.547.144c-.167.09-.304.214-.413.374-.103.16-.154.349-.154.567s.051.41.154.576c.109.16.246.288.413.384.173.09.355.134.547.134z"/></svg>