<?xml version="1.0" encoding="UTF-8"?>
<svg id="Layer_7" data-name="Layer 7" xmlns="http://www.w3.org/2000/svg" viewBox="0 0 24 24">
  <path id="path" d="M19.2,15.753l-3.447,3.447H4.8V4.8h14.4V15.753ZM4.8,3c-.99,0-1.8,.81-1.8,1.8v14.4c0,.99,.81,1.8,1.8,1.8h11.7l4.5-4.5V4.8c0-.99-.81-1.8-1.8-1.8H4.8Z"/>
  <path id="path_11" data-name="path 11" d="M8.7474,14.85v-4.9248l-.9888,.72-.6336-.9696,1.9296-1.392h.9504v6.5664h-1.2576Zm5.334,.1536c-.5634,0-1.053-.1506-1.4688-.4512-.4098-.3006-.7266-.7104-.9504-1.2288-.2238-.5184-.336-1.104-.336-1.7568s.1122-1.2384,.336-1.7568c.2238-.5184,.5406-.9282,.9504-1.2288,.4158-.3006,.9054-.4512,1.4688-.4512s1.0494,.1506,1.4592,.4512c.4158,.3006,.7362,.7104,.96,1.2288,.2238,.5184,.336,1.104,.336,1.7568s-.1122,1.2384-.336,1.7568c-.2238,.5184-.5442,.9282-.96,1.2288-.4098,.3006-.8958,.4512-1.4592,.4512Zm0-1.1808c.3138,0,.5826-.099,.8064-.2976s.3936-.4674,.5088-.8064c.1218-.339,.1824-.723,.1824-1.152,0-.435-.0606-.8226-.1824-1.1616-.1152-.339-.285-.6048-.5088-.7968-.2238-.1986-.4926-.2976-.8064-.2976-.3072,0-.573,.099-.7968,.2976-.2238,.192-.3966,.4578-.5184,.7968-.1152,.339-.1728,.7266-.1728,1.1616,0,.429,.0576,.813,.1728,1.152,.1218,.339,.2946,.6078,.5184,.8064,.2238,.1986,.4896,.2976,.7968,.2976Z"/>
</svg>