<svg data-name="Layer 7" xmlns="http://www.w3.org/2000/svg" viewBox="0 0 24 24"><path d="M19.2 15.753L15.753 19.2H4.8V4.8h14.4v10.953zM4.8 3C3.81 3 3 3.81 3 4.8v14.4c0 .99.81 1.8 1.8 1.8h11.7l4.5-4.5V4.8c0-.99-.81-1.8-1.8-1.8H4.8z"/><path data-name="path 22" d="M7.797 14.85v-1.142l.23-.23.519-.52.643-.642c.224-.224.425-.43.605-.615.179-.185.31-.32.393-.403.224-.243.381-.448.47-.614.09-.167.135-.359.135-.576a.766.766 0 0 0-.24-.557c-.16-.16-.384-.24-.672-.24s-.512.083-.672.25a1.4 1.4 0 0 0-.336.556l-1.133-.47c.07-.237.195-.47.375-.701.185-.23.425-.422.72-.576.3-.16.656-.24 1.065-.24.448 0 .833.086 1.152.26.327.172.576.402.75.69.178.288.268.612.268.97 0 .41-.099.787-.298 1.133a4.013 4.013 0 0 1-.739.95c-.115.115-.25.247-.403.394l-.451.451c-.147.154-.285.295-.413.422-.128.122-.227.218-.298.288l.03.058h2.658v1.104H7.797zm6.805 0V9.925l-.989.72-.633-.97 1.93-1.391h.95v6.566h-1.258z"/></svg>