<?xml version="1.0" encoding="UTF-8"?>
<svg id="Layer_7" data-name="Layer 7" xmlns="http://www.w3.org/2000/svg" viewBox="0 0 24 24">
  <path id="path" d="M19.2,15.753l-3.447,3.447H4.8V4.8h14.4V15.753ZM4.8,3c-.99,0-1.8,.81-1.8,1.8v14.4c0,.99,.81,1.8,1.8,1.8h11.7l4.5-4.5V4.8c0-.99-.81-1.8-1.8-1.8H4.8Z"/>
  <path id="path_19" data-name="path 19" d="M9.165,14.85v-4.9248l-.9888,.72-.6336-.9696,1.9296-1.392h.9504v6.5664h-1.2576Zm4.9206,.1536c-.4674,0-.8796-.0864-1.2384-.2592-.3582-.1794-.6396-.4158-.8448-.7104-.1986-.3006-.2976-.6366-.2976-1.008,0-.384,.1026-.7104,.3072-.9792,.2046-.2754,.435-.483,.6912-.624v-.0768c-.2046-.141-.387-.3264-.5472-.5568-.1536-.237-.2304-.5058-.2304-.8064,0-.3522,.093-.6654,.2784-.9408,.186-.2814,.4416-.5022,.768-.6624,.3264-.1662,.6978-.2496,1.1136-.2496s.7842,.0834,1.104,.2496c.3264,.1602,.5826,.381,.768,.6624,.192,.2754,.288,.5886,.288,.9408,0,.3006-.0798,.5694-.24,.8064-.1536,.2304-.336,.4158-.5472,.5568v.0768c.2628,.141,.4962,.3486,.7008,.624,.2052,.2688,.3072,.5952,.3072,.9792,0,.3714-.102,.7074-.3072,1.008-.198,.2946-.4764,.531-.8352,.7104-.3522,.1728-.7644,.2592-1.2384,.2592Zm0-4.128c.2622,0,.4836-.0738,.6624-.2208,.1854-.1536,.2784-.3522,.2784-.5952,0-.2496-.093-.4446-.2784-.5856-.1788-.147-.4002-.2208-.6624-.2208-.2688,0-.4956,.0738-.6816,.2208-.1794,.141-.2688,.336-.2688,.5856,0,.243,.0894,.4416,.2688,.5952,.186,.147,.4128,.2208,.6816,.2208Zm0,2.9664c.3264,0,.5922-.0864,.7968-.2592,.2112-.1728,.3168-.4002,.3168-.6816,0-.2688-.1056-.4896-.3168-.6624-.2112-.1728-.4764-.2592-.7968-.2592-.3198,0-.5886,.0864-.8064,.2592-.2112,.1728-.3168,.3936-.3168,.6624,0,.2814,.1056,.5088,.3168,.6816,.2112,.1728,.48,.2592,.8064,.2592Z"/>
</svg>