<?xml version="1.0" encoding="UTF-8"?>
<svg id="Layer_7" data-name="Layer 7" xmlns="http://www.w3.org/2000/svg" viewBox="0 0 24 24">
  <path id="path" d="M19.2,15.753l-3.447,3.447H4.8V4.8h14.4V15.753ZM4.8,3c-.99,0-1.8,.81-1.8,1.8v14.4c0,.99,.81,1.8,1.8,1.8h11.7l4.5-4.5V4.8c0-.99-.81-1.8-1.8-1.8H4.8Z"/>
  <path id="path_25" data-name="path 25" d="M6.8268,14.85v-1.1424l.2304-.2304c.1404-.141,.3132-.3138,.5184-.5184l.6432-.6432c.2238-.2238,.4254-.429,.6048-.6144,.1788-.1854,.3102-.3198,.3936-.4032,.2238-.243,.3804-.4482,.4704-.6144,.0894-.1662,.1344-.3582,.1344-.576,0-.2112-.0804-.3966-.24-.5568-.1602-.1602-.384-.24-.672-.24s-.5124,.0834-.672,.2496c-.1602,.1662-.2724,.3522-.336,.5568l-1.1328-.4704c.0702-.237,.195-.4704,.3744-.7008,.1854-.2304,.4254-.4224,.72-.576,.3006-.1602,.6558-.24,1.0656-.24,.4476,0,.8316,.0864,1.152,.2592,.3264,.1728,.576,.4032,.7488,.6912,.1788,.288,.2688,.6114,.2688,.9696,0,.4098-.0996,.7872-.2976,1.1328-.192,.3456-.4386,.6624-.7392,.9504-.1152,.1152-.2496,.2466-.4032,.3936-.1476,.147-.2976,.2976-.4512,.4512-.1476,.1536-.285,.2946-.4128,.4224-.1284,.1218-.2274,.2178-.2976,.288l.0288,.0576h2.6592v1.104H6.8268Zm5.2764-1.2096v-1.0176l2.9184-4.3392h1.3632v4.1856h.816v1.1712h-.816v1.2096h-1.2576v-1.2096h-3.024Zm1.392-1.1712h1.632v-2.3136h-.0768l-1.5552,2.3136Z"/>
</svg>