<svg data-name="Layer 7" xmlns="http://www.w3.org/2000/svg" viewBox="0 0 24 24"><path d="M19.2 15.753L15.753 19.2H4.8V4.8h14.4v10.953zM4.8 3C3.81 3 3 3.81 3 4.8v14.4c0 .99.81 1.8 1.8 1.8h11.7l4.5-4.5V4.8c0-.99-.81-1.8-1.8-1.8H4.8z"/><path data-name="path 19" d="M9.165 14.85V9.925l-.989.72-.633-.97 1.93-1.391h.95v6.566H9.165zm4.92.154a2.82 2.82 0 0 1-1.238-.26 2.21 2.21 0 0 1-.845-.71 1.788 1.788 0 0 1-.297-1.008c0-.384.102-.71.307-.98.205-.275.435-.482.691-.623v-.077a2.17 2.17 0 0 1-.547-.557 1.45 1.45 0 0 1-.23-.806c0-.352.093-.666.278-.941.186-.281.442-.502.768-.662.326-.167.698-.25 1.114-.25s.784.083 1.104.25c.326.16.582.38.768.662.192.275.288.589.288.94 0 .301-.08.57-.24.807-.154.23-.336.416-.548.557v.077c.263.14.497.348.701.624.205.269.307.595.307.979 0 .371-.102.707-.307 1.008a2.122 2.122 0 0 1-.835.71c-.352.173-.764.26-1.238.26zm0-4.128c.263 0 .484-.074.663-.221a.738.738 0 0 0 .278-.595.695.695 0 0 0-.278-.586 1.01 1.01 0 0 0-.662-.22c-.27 0-.496.073-.682.22a.703.703 0 0 0-.269.586c0 .243.09.441.269.595.186.147.413.22.682.22zm0 2.966c.327 0 .593-.086.797-.26a.838.838 0 0 0 .317-.68.818.818 0 0 0-.317-.663c-.21-.173-.476-.26-.796-.26-.32 0-.589.087-.807.26a.818.818 0 0 0-.317.662c0 .282.106.509.317.682.211.173.48.259.807.259z"/></svg>