<svg data-name="Layer 7" xmlns="http://www.w3.org/2000/svg" viewBox="0 0 24 24"><path d="M19.2 15.753L15.753 19.2H4.8V4.8h14.4v10.953zM4.8 3C3.81 3 3 3.81 3 4.8v14.4c0 .99.81 1.8 1.8 1.8h11.7l4.5-4.5V4.8c0-.99-.81-1.8-1.8-1.8H4.8z"/><path data-name="path 30" d="M7.052 14.85v-1.142l.23-.23c.14-.142.313-.315.519-.52l.643-.642c.224-.224.425-.43.605-.615.178-.185.31-.32.393-.403a3.3 3.3 0 0 0 .47-.614c.09-.167.135-.359.135-.576a.766.766 0 0 0-.24-.557c-.16-.16-.384-.24-.672-.24s-.512.083-.672.25c-.16.166-.272.352-.336.556l-1.133-.47c.07-.237.195-.47.375-.701.185-.23.425-.422.72-.576.3-.16.655-.24 1.065-.24.448 0 .832.086 1.152.26.327.172.576.402.749.69.179.288.269.612.269.97 0 .41-.1.787-.298 1.133a4.013 4.013 0 0 1-.739.95c-.115.115-.25.247-.403.394l-.451.451c-.148.154-.285.295-.413.422-.129.122-.228.218-.298.288l.029.058h2.66v1.104H7.05zm7.436.192l-.979-.672a151.85 151.85 0 0 1 1.354-1.9l-.058-.058a1.235 1.235 0 0 1-.5.096c-.332 0-.648-.09-.95-.27a2.13 2.13 0 0 1-.739-.748 2.155 2.155 0 0 1-.288-1.114c0-.441.11-.828.327-1.161.217-.34.502-.605.854-.797a2.33 2.33 0 0 1 1.133-.288c.378 0 .717.07 1.017.211a2.177 2.177 0 0 1 1.19 1.248c.103.262.154.54.154.835 0 .442-.089.845-.268 1.21a8.218 8.218 0 0 1-.663 1.133l-.797 1.142-.787 1.133zm.183-3.58c.192 0 .371-.046.537-.135a1.15 1.15 0 0 0 .403-.384c.11-.166.164-.358.164-.576s-.054-.406-.164-.567a1.07 1.07 0 0 0-.403-.374c-.166-.096-.345-.144-.537-.144s-.375.048-.548.144c-.166.09-.303.214-.412.374-.102.16-.154.349-.154.567s.052.41.154.576c.109.16.246.288.412.384.173.09.356.134.548.134z"/></svg>