<?xml version="1.0" encoding="UTF-8"?>
<svg id="Layer_7" data-name="Layer 7" xmlns="http://www.w3.org/2000/svg" viewBox="0 0 24 24">
  <path id="path" d="M19.2,15.753l-3.447,3.447H4.8V4.8h14.4V15.753ZM4.8,3c-.99,0-1.8,.81-1.8,1.8v14.4c0,.99,.81,1.8,1.8,1.8h11.7l4.5-4.5V4.8c0-.99-.81-1.8-1.8-1.8H4.8Z"/>
  <path id="path_15" data-name="path 15" d="M8.9772,14.85v-4.9248l-.9888,.72-.6336-.9696,1.9296-1.392h.9504v6.5664h-1.2576Zm2.5404-1.2096v-1.0176l2.9184-4.3392h1.3632v4.1856h.816v1.1712h-.816v1.2096h-1.2576v-1.2096h-3.024Zm1.392-1.1712h1.632v-2.3136h-.0768l-1.5552,2.3136Z"/>
</svg>