<svg data-name="Layer 7" xmlns="http://www.w3.org/2000/svg" viewBox="0 0 24 24"><path d="M19.2 15.753L15.753 19.2H4.8V4.8h14.4v10.953zM4.8 3C3.81 3 3 3.81 3 4.8v14.4c0 .99.81 1.8 1.8 1.8h11.7l4.5-4.5V4.8c0-.99-.81-1.8-1.8-1.8H4.8z"/><path data-name="path 14" d="M9.244 14.85V9.925l-.988.72-.634-.97 1.93-1.391h.95v6.566H9.244zm4.835.154a2.614 2.614 0 0 1-1.45-.423c-.435-.288-.736-.723-.902-1.305l1.19-.47c.16.652.548.978 1.162.978.269 0 .506-.08.71-.24a.792.792 0 0 0 .308-.643.777.777 0 0 0-.327-.662c-.218-.16-.506-.24-.864-.24h-.566v-1.143h.518c.262 0 .496-.067.701-.201s.307-.343.307-.624a.684.684 0 0 0-.24-.538c-.153-.14-.358-.211-.614-.211-.282 0-.5.077-.653.23s-.26.324-.317.51L11.9 9.55c.077-.218.204-.435.384-.653.18-.218.413-.4.7-.547s.634-.221 1.037-.221c.423 0 .79.077 1.104.23.32.154.57.365.75.634.179.262.268.56.268.893 0 .377-.09.688-.269.931-.173.243-.362.416-.566.518v.077c.3.122.554.317.758.586.211.269.317.608.317 1.017 0 .378-.096.717-.288 1.018s-.46.538-.806.71c-.346.173-.75.26-1.21.26z"/></svg>