<?xml version="1.0" encoding="UTF-8"?>
<svg id="Layer_7" data-name="Layer 7" xmlns="http://www.w3.org/2000/svg" viewBox="0 0 24 24">
  <path id="path" d="M19.2,15.753l-3.447,3.447H4.8V4.8h14.4V15.753ZM4.8,3c-.99,0-1.8,.81-1.8,1.8v14.4c0,.99,.81,1.8,1.8,1.8h11.7l4.5-4.5V4.8c0-.99-.81-1.8-1.8-1.8H4.8Z"/>
  <path id="path_17" data-name="path 17" d="M9.1788,14.85v-4.9248l-.9888,.72-.6336-.9696,1.9296-1.392h.9504v6.5664h-1.2576Zm4.9488,.1536c-.3648,0-.6978-.0642-.9984-.192-.2946-.1344-.5442-.3102-.7488-.528-.4098-.429-.6144-.9534-.6144-1.5744,0-.4416,.0864-.8448,.2592-1.2096,.1788-.3648,.4032-.7422,.672-1.1328,.2622-.3774,.5244-.7554,.7872-1.1328,.2688-.384,.534-.765,.7968-1.1424l.9792,.672c-.2244,.3138-.4512,.6306-.6816,.9504-.2244,.3138-.4482,.6306-.672,.9504l.0576,.0576c.147-.0642,.3132-.096,.4992-.096,.3324,0,.6492,.0894,.9504,.2688,.3006,.1794,.5472,.429,.7392,.7488,.192,.3198,.288,.6912,.288,1.1136,0,.435-.1092,.8226-.3264,1.1616-.2178,.339-.5028,.6048-.8544,.7968-.3522,.192-.7296,.288-1.1328,.288Zm-.0288-1.152c.198,0,.3804-.045,.5472-.1344,.1662-.096,.3006-.2238,.4032-.384,.1086-.1662,.1632-.3552,.1632-.5664,0-.2178-.0546-.4062-.1632-.5664-.1026-.1662-.24-.2946-.4128-.384-.1668-.096-.3456-.144-.5376-.144-.186,0-.3648,.048-.5376,.144-.1668,.0894-.3042,.2178-.4128,.384-.1026,.1602-.1536,.3486-.1536,.5664,0,.2112,.051,.4002,.1536,.5664,.1086,.1602,.246,.288,.4128,.384,.1662,.0894,.3456,.1344,.5376,.1344Z"/>
</svg>