<?xml version="1.0" encoding="UTF-8"?>
<svg id="Layer_7" data-name="Layer 7" xmlns="http://www.w3.org/2000/svg" viewBox="0 0 24 24">
  <path id="path" d="M19.2,15.753l-3.447,3.447H4.8V4.8h14.4V15.753ZM4.8,3c-.99,0-1.8,.81-1.8,1.8v14.4c0,.99,.81,1.8,1.8,1.8h11.7l4.5-4.5V4.8c0-.99-.81-1.8-1.8-1.8H4.8Z"/>
  <path id="path_26" data-name="path 26" d="M7.0188,14.85v-1.1424l.2304-.2304,.5184-.5184,.6432-.6432c.2238-.2238,.4254-.429,.6048-.6144,.1794-.1854,.3102-.3198,.3936-.4032,.2238-.243,.381-.4482,.4704-.6144,.0894-.1662,.1344-.3582,.1344-.576,0-.2112-.0798-.3966-.24-.5568-.1602-.1602-.384-.24-.672-.24s-.5118,.0834-.672,.2496c-.1602,.1662-.2718,.3522-.336,.5568l-1.1328-.4704c.0702-.237,.195-.4704,.3744-.7008,.1854-.2304,.4254-.4224,.72-.576,.3006-.1602,.6558-.24,1.0656-.24,.4482,0,.8322,.0864,1.152,.2592,.3264,.1728,.576,.4032,.7488,.6912,.1794,.288,.2688,.6114,.2688,.9696,0,.4098-.099,.7872-.2976,1.1328-.192,.3456-.4386,.6624-.7392,.9504-.1152,.1152-.2496,.2466-.4032,.3936l-.4512,.4512c-.147,.1536-.285,.2946-.4128,.4224-.1278,.1218-.2274,.2178-.2976,.288l.0288,.0576h2.6592v1.104H7.0188Zm7.6098,.1536c-.3264,0-.6528-.0642-.9792-.192-.3204-.1278-.6018-.3234-.8448-.5856-.2436-.2622-.4128-.5952-.5088-.9984l1.1328-.4416c.0702,.3138,.2076,.5694,.4128,.768,.2046,.192,.4638,.288,.7776,.288,.3006,0,.5532-.1026,.7584-.3072,.2112-.2046,.3168-.4638,.3168-.7776,0-.3072-.0996-.5634-.2976-.768-.1986-.2112-.4578-.3168-.7776-.3168-.1986,0-.3744,.0414-.528,.1248s-.285,.189-.3936,.3168l-1.2192-.5472,.3744-3.2832h3.7056v1.104h-2.6592l-.24,1.536,.0768,.0192c.1278-.1086,.2844-.2016,.4704-.2784,.192-.0768,.4158-.1152,.672-.1152,.3648,0,.7038,.093,1.0176,.2784,.3132,.1854,.5664,.4446,.7584,.7776,.198,.3264,.2976,.7104,.2976,1.152,0,.435-.0996,.8226-.2976,1.1616-.1986,.339-.474,.6048-.8256,.7968-.3456,.192-.7458,.288-1.2,.288Z"/>
</svg>