<?xml version="1.0" encoding="UTF-8"?>
<svg id="Layer_7" data-name="Layer 7" xmlns="http://www.w3.org/2000/svg" viewBox="0 0 24 24">
  <path id="path" d="M19.2,15.753l-3.447,3.447H4.8V4.8h14.4V15.753ZM4.8,3c-.99,0-1.8,.81-1.8,1.8v14.4c0,.99,.81,1.8,1.8,1.8h11.7l4.5-4.5V4.8c0-.99-.81-1.8-1.8-1.8H4.8Z"/>
  <path id="path_9" data-name="path 9" d="M12.0048,15.0036c-.4674,0-.8802-.0864-1.2384-.2592-.3588-.1794-.6402-.4158-.8454-.7104-.198-.3006-.2976-.6366-.2976-1.008,0-.384,.1026-.7104,.3072-.9792,.2052-.2754,.4356-.483,.6912-.624v-.0768c-.2046-.141-.387-.3264-.5472-.5568-.1536-.237-.2304-.5058-.2304-.8064,0-.3522,.093-.6654,.2784-.9408,.186-.2814,.4422-.5022,.768-.6624,.327-.1662,.6978-.2496,1.1142-.2496,.4158,0,.7836,.0834,1.1034,.2496,.327,.1602,.5826,.381,.768,.6624,.192,.2754,.2886,.5886,.2886,.9408,0,.3006-.0804,.5694-.24,.8064-.1536,.2304-.336,.4158-.5478,.5568v.0768c.2628,.141,.4962,.3486,.7014,.624,.2046,.2688,.3066,.5952,.3066,.9792,0,.3714-.102,.7074-.3066,1.008-.1986,.2946-.477,.531-.8352,.7104-.3522,.1728-.765,.2592-1.2384,.2592Zm0-4.128c.2622,0,.483-.0738,.6618-.2208,.186-.1536,.2784-.3522,.2784-.5952,0-.2496-.0924-.4446-.2784-.5856-.1788-.147-.3996-.2208-.6618-.2208-.2694,0-.4962,.0738-.6822,.2208-.1788,.141-.2688,.336-.2688,.5856,0,.243,.09,.4416,.2688,.5952,.186,.147,.4128,.2208,.6822,.2208Zm0,2.9664c.3258,0,.5916-.0864,.7968-.2592,.2112-.1728,.3168-.4002,.3168-.6816,0-.2688-.1056-.4896-.3168-.6624-.2118-.1728-.477-.2592-.7968-.2592-.3204,0-.5892,.0864-.807,.2592-.2106,.1728-.3162,.3936-.3162,.6624,0,.2814,.1056,.5088,.3162,.6816,.2118,.1728,.4806,.2592,.807,.2592Z"/>
</svg>