<svg data-name="Layer 7" xmlns="http://www.w3.org/2000/svg" viewBox="0 0 24 24"><path d="M19.2 15.753L15.753 19.2H4.8V4.8h14.4v10.953zM4.8 3C3.81 3 3 3.81 3 4.8v14.4c0 .99.81 1.8 1.8 1.8h11.7l4.5-4.5V4.8c0-.99-.81-1.8-1.8-1.8H4.8z"/><path data-name="path 29" d="M7.014 14.85v-1.142l.23-.23.519-.52.643-.642c.224-.224.425-.43.605-.615s.31-.32.393-.403c.224-.243.381-.448.47-.614a1.19 1.19 0 0 0 .135-.576.764.764 0 0 0-.24-.557c-.16-.16-.384-.24-.672-.24s-.512.083-.672.25c-.16.166-.272.352-.336.556l-1.133-.47c.071-.237.195-.47.375-.701.186-.23.426-.422.72-.576.3-.16.656-.24 1.065-.24.449 0 .833.086 1.152.26.327.172.576.402.75.69.179.288.268.612.268.97 0 .41-.099.787-.298 1.133a3.997 3.997 0 0 1-.739.95c-.115.115-.25.247-.403.394l-.451.451c-.147.154-.285.295-.413.422-.128.122-.227.218-.298.288l.03.058h2.658v1.104H7.014zm7.658.154c-.468 0-.88-.087-1.239-.26a2.2 2.2 0 0 1-.844-.71 1.788 1.788 0 0 1-.298-1.008c0-.384.102-.71.307-.98.205-.275.435-.482.691-.623v-.077a2.15 2.15 0 0 1-.547-.557 1.45 1.45 0 0 1-.23-.806c0-.352.092-.666.278-.941.186-.281.442-.502.768-.662.327-.167.697-.25 1.114-.25.416 0 .783.083 1.104.25.326.16.582.38.768.662.192.275.288.589.288.94 0 .301-.08.57-.24.807-.154.23-.336.416-.547.557v.077c.262.14.495.348.7.624.205.269.308.595.308.979 0 .371-.103.707-.308 1.008a2.13 2.13 0 0 1-.835.71c-.352.173-.765.26-1.238.26zm0-4.128c.262 0 .483-.074.662-.221a.738.738 0 0 0 .279-.595.695.695 0 0 0-.279-.586c-.18-.147-.4-.22-.662-.22-.269 0-.496.073-.682.22a.703.703 0 0 0-.269.586c0 .243.09.441.27.595.185.147.412.22.68.22zm0 2.966c.326 0 .591-.086.797-.26a.838.838 0 0 0 .316-.68.818.818 0 0 0-.316-.663c-.212-.173-.477-.26-.797-.26-.32 0-.59.087-.807.26a.818.818 0 0 0-.316.662c0 .282.105.509.316.682.212.173.48.259.807.259z"/></svg>