<svg data-name="Layer 7" xmlns="http://www.w3.org/2000/svg" viewBox="0 0 24 24"><path d="M19.2 15.753L15.753 19.2H4.8V4.8h14.4v10.953zM4.8 3C3.81 3 3 3.81 3 4.8v14.4c0 .99.81 1.8 1.8 1.8h11.7l4.5-4.5V4.8c0-.99-.81-1.8-1.8-1.8H4.8z"/><path data-name="path 21" d="M6.597 14.85v-1.142l.23-.23.519-.52.643-.642c.224-.224.425-.43.605-.615.179-.185.31-.32.393-.403.224-.243.381-.448.47-.614.09-.167.135-.359.135-.576a.766.766 0 0 0-.24-.557c-.16-.16-.384-.24-.672-.24s-.512.083-.672.25a1.4 1.4 0 0 0-.336.556l-1.133-.47c.07-.237.195-.47.375-.701.185-.23.425-.422.72-.576.3-.16.656-.24 1.065-.24.448 0 .833.086 1.152.26.327.172.576.402.75.69.178.288.268.612.268.97 0 .41-.099.787-.298 1.133a4.013 4.013 0 0 1-.739.95c-.115.115-.25.247-.403.394l-.451.451c-.147.154-.285.295-.413.422-.128.122-.227.218-.298.288l.03.058h2.658v1.104H6.597zm8.07.154c-.563 0-1.052-.151-1.468-.452-.41-.3-.727-.71-.951-1.228-.224-.519-.336-1.104-.336-1.757s.112-1.239.336-1.757c.224-.518.541-.928.95-1.229.417-.3.906-.451 1.47-.451.562 0 1.049.15 1.458.451.417.3.736.71.96 1.229.225.518.337 1.104.337 1.757s-.112 1.238-.337 1.757a2.887 2.887 0 0 1-.96 1.228c-.409.301-.896.452-1.458.452zm0-1.181c.314 0 .583-.1.806-.298a1.84 1.84 0 0 0 .51-.806c.121-.34.182-.723.182-1.152 0-.435-.061-.823-.182-1.162-.115-.339-.285-.605-.51-.797a1.173 1.173 0 0 0-.805-.297c-.308 0-.573.099-.798.297-.224.192-.396.458-.518.797a3.604 3.604 0 0 0-.173 1.162c0 .429.058.813.173 1.152.122.339.294.608.518.806.225.199.49.298.798.298z"/></svg>