<svg data-name="Layer 7" xmlns="http://www.w3.org/2000/svg" viewBox="0 0 24 24"><path d="M19.2 15.753L15.753 19.2H4.8V4.8h14.4v10.953zM4.8 3C3.81 3 3 3.81 3 4.8v14.4c0 .99.81 1.8 1.8 1.8h11.7l4.5-4.5V4.8c0-.99-.81-1.8-1.8-1.8H4.8z"/><path data-name="path 25" d="M6.827 14.85v-1.142l.23-.23c.14-.142.313-.315.519-.52l.643-.642c.224-.224.425-.43.605-.615.178-.185.31-.32.393-.403a3.3 3.3 0 0 0 .47-.614c.09-.167.135-.359.135-.576a.766.766 0 0 0-.24-.557c-.16-.16-.384-.24-.672-.24s-.512.083-.672.25c-.16.166-.272.352-.336.556l-1.133-.47c.07-.237.195-.47.375-.701.185-.23.425-.422.72-.576.3-.16.655-.24 1.065-.24.448 0 .832.086 1.152.26.327.172.576.402.749.69.179.288.269.612.269.97 0 .41-.1.787-.298 1.133a4.013 4.013 0 0 1-.739.95c-.115.115-.25.247-.403.394l-.451.451c-.148.154-.285.295-.413.422-.129.122-.228.218-.298.288l.029.058h2.66v1.104h-4.36zm5.276-1.21v-1.017l2.919-4.34h1.363v4.186h.816v1.171h-.816v1.21h-1.258v-1.21h-3.024zm1.392-1.17h1.632v-2.314h-.077l-1.555 2.313z"/></svg>