<svg data-name="Layer 7" xmlns="http://www.w3.org/2000/svg" viewBox="0 0 24 24"><path d="M19.2 15.753L15.753 19.2H4.8V4.8h14.4v10.953zM4.8 3C3.81 3 3 3.81 3 4.8v14.4c0 .99.81 1.8 1.8 1.8h11.7l4.5-4.5V4.8c0-.99-.81-1.8-1.8-1.8H4.8z"/><path data-name="path 23" d="M7.164 14.85v-1.142l.23-.23.519-.52.643-.642c.224-.224.425-.43.605-.615s.31-.32.393-.403c.224-.243.381-.448.47-.614a1.19 1.19 0 0 0 .135-.576.764.764 0 0 0-.24-.557c-.16-.16-.384-.24-.672-.24s-.512.083-.672.25c-.16.166-.272.352-.336.556l-1.133-.47c.071-.237.195-.47.375-.701.186-.23.426-.422.72-.576.3-.16.656-.24 1.065-.24.449 0 .833.086 1.152.26.327.172.576.402.75.69.179.288.268.612.268.97 0 .41-.099.787-.298 1.133a3.997 3.997 0 0 1-.739.95c-.115.115-.25.247-.403.394l-.451.451c-.147.154-.285.295-.413.422-.128.122-.227.218-.298.288l.03.058h2.658v1.104H7.164zm5.335 0v-1.142l.23-.23c.14-.142.313-.315.518-.52l.644-.642c.223-.224.425-.43.604-.615.18-.185.31-.32.394-.403a3.3 3.3 0 0 0 .47-.614c.09-.167.135-.359.135-.576a.766.766 0 0 0-.24-.557c-.16-.16-.384-.24-.672-.24s-.513.083-.672.25c-.16.166-.273.352-.336.556l-1.133-.47c.07-.237.195-.47.374-.701.186-.23.426-.422.72-.576.301-.16.656-.24 1.066-.24.448 0 .832.086 1.152.26.326.172.576.402.749.69.179.288.269.612.269.97 0 .41-.1.787-.298 1.133a4.013 4.013 0 0 1-.74.95c-.114.115-.249.247-.402.394l-.452.451c-.147.154-.285.295-.412.422-.129.122-.228.218-.298.288l.029.058h2.659v1.104h-4.358z"/></svg>