<?xml version="1.0" encoding="UTF-8"?>
<svg id="Layer_7" data-name="Layer 7" xmlns="http://www.w3.org/2000/svg" viewBox="0 0 24 24">
  <path id="path" d="M19.2,15.753l-3.447,3.447H4.8V4.8h14.4V15.753ZM4.8,3c-.99,0-1.8,.81-1.8,1.8v14.4c0,.99,.81,1.8,1.8,1.8h11.7l4.5-4.5V4.8c0-.99-.81-1.8-1.8-1.8H4.8Z"/>
  <path id="path_14" data-name="path 14" d="M9.2442,14.85v-4.9248l-.9882,.72-.6342-.9696,1.9296-1.392h.951v6.5664h-1.2582Zm4.8348,.1536c-.531,0-1.0146-.141-1.4496-.4224-.435-.288-.7362-.723-.9024-1.3056l1.1904-.4704c.1602,.6528,.5472,.9792,1.1616,.9792,.2688,0,.5058-.0798,.7104-.24,.2046-.1662,.3072-.381,.3072-.6432,0-.2814-.1086-.5022-.3264-.6624-.2178-.1602-.5058-.24-.864-.24h-.5664v-1.1424h.5184c.2622,0,.4962-.0672,.7008-.2016s.3072-.3426,.3072-.624c0-.2178-.0798-.3966-.24-.5376-.1536-.141-.3582-.2112-.6144-.2112-.2814,0-.4992,.0768-.6528,.2304s-.2592,.3234-.3168,.5088l-1.1424-.4704c.0768-.2178,.2046-.435,.384-.6528,.1794-.2178,.4128-.4002,.7008-.5472s.6336-.2208,1.0368-.2208c.4224,0,.7902,.0768,1.104,.2304,.3198,.1536,.5694,.3648,.7488,.6336,.1794,.2622,.2688,.5598,.2688,.8928,0,.3774-.0894,.6882-.2688,.9312-.1728,.243-.3618,.4158-.5664,.5184v.0768c.3006,.1218,.5538,.3168,.7584,.5856,.2112,.2688,.3168,.6078,.3168,1.0176,0,.3774-.096,.717-.288,1.0176s-.4608,.5376-.8064,.7104c-.3456,.1728-.7488,.2592-1.2096,.2592Z"/>
</svg>