<?xml version="1.0" encoding="UTF-8"?>
<svg id="Layer_7" data-name="Layer 7" xmlns="http://www.w3.org/2000/svg" viewBox="0 0 24 24">
  <path id="path" d="M19.2,15.753l-3.447,3.447H4.8V4.8h14.4V15.753ZM4.8,3c-.99,0-1.8,.81-1.8,1.8v14.4c0,.99,.81,1.8,1.8,1.8h11.7l4.5-4.5V4.8c0-.99-.81-1.8-1.8-1.8H4.8Z"/>
  <path id="path_3" data-name="path 3" d="M9.8316,14.85v-1.1424l.2304-.2304c.1404-.141,.3132-.3138,.5178-.5184,.2118-.2112,.426-.4254,.6438-.6432,.2238-.2238,.4254-.429,.6048-.6144,.1788-.1854,.3102-.3198,.3936-.4032,.2238-.243,.3804-.4482,.4704-.6144,.0894-.1662,.1338-.3582,.1338-.576,0-.2112-.0798-.3966-.24-.5568-.1596-.1602-.384-.24-.6714-.24-.2886,0-.5124,.0834-.6726,.2496-.1596,.1662-.2718,.3522-.3354,.5568l-1.1334-.4704c.0708-.237,.1956-.4704,.3744-.7008,.186-.2304,.426-.4224,.7206-.576,.3006-.1602,.6558-.24,1.065-.24,.4482,0,.8322,.0864,1.152,.2592,.3264,.1728,.5766,.4032,.7488,.6912,.1794,.288,.2688,.6114,.2688,.9696,0,.4098-.099,.7872-.297,1.1328-.192,.3456-.4386,.6624-.7392,.9504-.1152,.1152-.2502,.2466-.4038,.3936l-.4512,.4512c-.147,.1536-.2844,.2946-.4122,.4224-.1284,.1218-.2274,.2178-.2982,.288l.0294,.0576h2.6592v1.104h-4.3584Z"/>
</svg>