<svg data-name="Layer 7" xmlns="http://www.w3.org/2000/svg" viewBox="0 0 24 24"><path d="M19.2 15.753L15.753 19.2H4.8V4.8h14.4v10.953zM4.8 3C3.81 3 3 3.81 3 4.8v14.4c0 .99.81 1.8 1.8 1.8h11.7l4.5-4.5V4.8c0-.99-.81-1.8-1.8-1.8H4.8z"/><path data-name="path 27" d="M7.052 14.85v-1.142l.23-.23c.14-.142.313-.315.519-.52l.643-.642c.224-.224.425-.43.605-.615.178-.185.31-.32.393-.403a3.3 3.3 0 0 0 .47-.614c.09-.167.135-.359.135-.576a.766.766 0 0 0-.24-.557c-.16-.16-.384-.24-.672-.24s-.512.083-.672.25c-.16.166-.272.352-.336.556l-1.133-.47c.07-.237.195-.47.375-.701.185-.23.425-.422.72-.576.3-.16.655-.24 1.065-.24.448 0 .832.086 1.152.26.327.172.576.402.749.69.179.288.269.612.269.97 0 .41-.1.787-.298 1.133a4.013 4.013 0 0 1-.739.95c-.115.115-.25.247-.403.394l-.451.451c-.148.154-.285.295-.413.422-.129.122-.228.218-.298.288l.029.058h2.66v1.104H7.05zm7.638.154a2.53 2.53 0 0 1-.999-.192 2.366 2.366 0 0 1-.748-.528c-.41-.43-.615-.954-.615-1.575 0-.441.087-.845.26-1.21.179-.364.403-.742.671-1.132l.788-1.133.796-1.142.98.672-.682.95c-.224.314-.448.63-.672.95l.058.058c.147-.064.313-.096.499-.096.333 0 .65.09.95.269a2.122 2.122 0 0 1 1.027 1.862c0 .435-.108.823-.326 1.162a2.317 2.317 0 0 1-.854.797c-.352.192-.73.288-1.133.288zm-.029-1.152c.199 0 .381-.045.547-.135a1.15 1.15 0 0 0 .403-.384c.11-.166.164-.355.164-.566a.98.98 0 0 0-.164-.567 1.034 1.034 0 0 0-.412-.384 1.057 1.057 0 0 0-.538-.144c-.185 0-.365.048-.538.144-.166.09-.303.218-.412.384-.102.16-.154.349-.154.567 0 .211.052.4.154.566.109.16.246.288.412.384.167.09.346.135.538.135z"/></svg>