<svg data-name="Layer 7" xmlns="http://www.w3.org/2000/svg" viewBox="0 0 24 24"><path d="M19.2 15.753L15.753 19.2H4.8V4.8h14.4v10.953zM4.8 3C3.81 3 3 3.81 3 4.8v14.4c0 .99.81 1.8 1.8 1.8h11.7l4.5-4.5V4.8c0-.99-.81-1.8-1.8-1.8H4.8z"/><path data-name="path 10" d="M11.821 15.042l-.979-.672c.224-.32.448-.637.672-.95l.682-.95-.058-.058a1.237 1.237 0 0 1-.5.096c-.332 0-.649-.09-.95-.27s-.547-.428-.739-.748a2.155 2.155 0 0 1-.288-1.114c0-.441.109-.828.327-1.161.217-.34.502-.605.854-.797a2.33 2.33 0 0 1 1.133-.288c.377 0 .717.07 1.017.211a2.177 2.177 0 0 1 1.19 1.248c.103.262.154.54.154.835 0 .442-.089.845-.268 1.21a8.218 8.218 0 0 1-.663 1.133l-.797 1.142-.787 1.133zm.183-3.58c.192 0 .371-.046.537-.135.166-.096.3-.224.403-.384.109-.166.164-.358.164-.576s-.055-.406-.164-.567a1.078 1.078 0 0 0-.403-.374c-.166-.096-.345-.144-.537-.144s-.375.048-.548.144c-.166.09-.304.214-.412.374-.103.16-.154.349-.154.567s.051.41.154.576c.108.16.246.288.412.384.173.09.356.134.548.134z"/></svg>