<?xml version="1.0" encoding="UTF-8"?>
<svg id="Layer_7" data-name="Layer 7" xmlns="http://www.w3.org/2000/svg" viewBox="0 0 24 24">
  <path id="path" d="M19.2,15.753l-3.447,3.447H4.8V4.8h14.4V15.753ZM4.8,3c-.99,0-1.8,.81-1.8,1.8v14.4c0,.99,.81,1.8,1.8,1.8h11.7l4.5-4.5V4.8c0-.99-.81-1.8-1.8-1.8H4.8Z"/>
  <path id="path_13" data-name="path 13" d="M9.2682,14.85v-4.9248l-.9888,.72-.6336-.9696,1.9296-1.392h.9504v6.5664h-1.2576Zm2.691,0v-1.1424c.0132-.0126,.09-.0894,.2304-.2304l.5184-.5184c.2112-.2112,.426-.4254,.6432-.6432,.2244-.2238,.426-.429,.6048-.6144,.1794-.1854,.3108-.3198,.3936-.4032,.2244-.243,.381-.4482,.4704-.6144,.09-.1662,.1344-.3582,.1344-.576,0-.2112-.0798-.3966-.24-.5568-.1596-.1602-.384-.24-.672-.24s-.5118,.0834-.672,.2496c-.1596,.1662-.2718,.3522-.336,.5568l-1.1328-.4704c.0708-.237,.1956-.4704,.3744-.7008,.186-.2304,.426-.4224,.72-.576,.3012-.1602,.6564-.24,1.0656-.24,.4482,0,.8322,.0864,1.152,.2592,.3264,.1728,.576,.4032,.7488,.6912,.1794,.288,.2688,.6114,.2688,.9696,0,.4098-.099,.7872-.2976,1.1328-.192,.3456-.438,.6624-.7392,.9504-.1152,.1152-.2496,.2466-.4032,.3936l-.4512,.4512c-.147,.1536-.2844,.2946-.4128,.4224-.1278,.1218-.2268,.2178-.2976,.288l.0288,.0576h2.6592v1.104h-4.3584Z"/>
</svg>