<svg data-name="Layer 7" xmlns="http://www.w3.org/2000/svg" viewBox="0 0 24 24"><path d="M19.2 15.753L15.753 19.2H4.8V4.8h14.4v10.953zM4.8 3C3.81 3 3 3.81 3 4.8v14.4c0 .99.81 1.8 1.8 1.8h11.7l4.5-4.5V4.8c0-.99-.81-1.8-1.8-1.8H4.8z"/><path data-name="path 4" d="M11.998 15.004a2.615 2.615 0 0 1-1.45-.423c-.435-.288-.736-.723-.902-1.305l1.19-.47c.16.652.547.978 1.162.978.268 0 .505-.08.71-.24a.79.79 0 0 0 .307-.643.777.777 0 0 0-.326-.662c-.217-.16-.505-.24-.864-.24h-.567v-1.143h.519c.263 0 .496-.067.7-.201.206-.135.308-.343.308-.624a.684.684 0 0 0-.24-.538c-.154-.14-.358-.211-.615-.211-.281 0-.499.077-.652.23-.154.154-.26.324-.317.51L9.818 9.55a2.186 2.186 0 0 1 1.085-1.2c.288-.147.634-.221 1.037-.221.422 0 .79.077 1.104.23.32.154.57.365.749.634.18.262.269.56.269.893 0 .377-.09.688-.27.931-.172.243-.36.416-.566.518v.077c.302.122.554.317.759.586.211.269.317.608.317 1.017 0 .378-.096.717-.288 1.018s-.461.538-.807.71c-.345.173-.749.26-1.21.26z"/></svg>