<svg data-name="Layer 7" xmlns="http://www.w3.org/2000/svg" viewBox="0 0 24 24"><path d="M19.2 15.753L15.753 19.2H4.8V4.8h14.4v10.953zM4.8 3C3.81 3 3 3.81 3 4.8v14.4c0 .99.81 1.8 1.8 1.8h11.7l4.5-4.5V4.8c0-.99-.81-1.8-1.8-1.8H4.8z"/><path data-name="path 16" d="M9.122 14.85V9.925l-.988.72-.634-.97 1.93-1.391h.95v6.566H9.122zm4.967.154a2.67 2.67 0 0 1-.979-.192 2.313 2.313 0 0 1-.845-.586 2.18 2.18 0 0 1-.509-.998l1.133-.442c.07.314.208.57.413.768.205.192.464.288.778.288.3 0 .553-.103.758-.307.211-.205.317-.464.317-.778 0-.307-.1-.563-.298-.768-.198-.211-.458-.317-.777-.317a1.09 1.09 0 0 0-.528.125 1.367 1.367 0 0 0-.394.317l-1.22-.547.375-3.283h3.706v1.104h-2.66l-.24 1.536.077.019c.129-.109.285-.202.47-.279.193-.076.417-.115.673-.115.365 0 .704.093 1.017.279.314.185.567.444.759.777.198.327.297.71.297 1.152 0 .435-.099.823-.297 1.162a2.101 2.101 0 0 1-.826.797 2.43 2.43 0 0 1-1.2.288z"/></svg>