<svg data-name="Layer 7" xmlns="http://www.w3.org/2000/svg" viewBox="0 0 24 24"><path d="M19.2 15.753L15.753 19.2H4.8V4.8h14.4v10.953zM4.8 3C3.81 3 3 3.81 3 4.8v14.4c0 .99.81 1.8 1.8 1.8h11.7l4.5-4.5V4.8c0-.99-.81-1.8-1.8-1.8H4.8z"/><path data-name="path 24" d="M7.094 14.85v-1.142l.23-.23.519-.52.643-.642c.224-.224.425-.43.605-.615.179-.185.31-.32.393-.403.224-.243.381-.448.47-.614.09-.167.135-.359.135-.576a.764.764 0 0 0-.24-.557c-.16-.16-.384-.24-.672-.24s-.512.083-.672.25a1.4 1.4 0 0 0-.336.556l-1.133-.47c.07-.237.195-.47.375-.701.185-.23.425-.422.72-.576.3-.16.655-.24 1.065-.24.448 0 .832.086 1.152.26.327.172.576.402.749.69.18.288.269.612.269.97 0 .41-.1.787-.298 1.133a4.013 4.013 0 0 1-.739.95c-.115.115-.25.247-.403.394l-.451.451c-.147.154-.285.295-.413.422-.128.122-.228.218-.298.288l.029.058h2.66v1.104h-4.36zm7.571.154a2.613 2.613 0 0 1-1.45-.423c-.435-.288-.736-.723-.902-1.305l1.19-.47c.16.652.548.978 1.162.978.269 0 .505-.08.71-.24a.792.792 0 0 0 .308-.643.778.778 0 0 0-.327-.662c-.217-.16-.505-.24-.864-.24h-.566v-1.143h.518c.263 0 .496-.067.701-.201.205-.135.307-.343.307-.624a.686.686 0 0 0-.24-.538c-.153-.14-.358-.211-.614-.211-.282 0-.5.077-.653.23s-.259.324-.317.51l-1.142-.471c.077-.218.205-.435.384-.653.179-.218.413-.4.7-.547s.634-.221 1.038-.221c.422 0 .79.077 1.104.23.32.154.569.365.748.634.18.262.27.56.27.893 0 .377-.09.688-.27.931-.172.243-.361.416-.566.518v.077c.3.122.553.317.758.586.212.269.317.608.317 1.017 0 .378-.096.717-.288 1.018-.192.3-.46.538-.806.71-.346.173-.749.26-1.21.26z"/></svg>