<svg data-name="Layer 7" xmlns="http://www.w3.org/2000/svg" viewBox="0 0 24 24"><path d="M19.2 15.753L15.753 19.2H4.8V4.8h14.4v10.953zM4.8 3C3.81 3 3 3.81 3 4.8v14.4c0 .99.81 1.8 1.8 1.8h11.7l4.5-4.5V4.8c0-.99-.81-1.8-1.8-1.8H4.8z"/><path data-name="path 7" d="M12.023 15.004c-.365 0-.698-.065-.999-.192a2.353 2.353 0 0 1-.748-.528c-.41-.43-.615-.954-.615-1.575 0-.441.087-.845.26-1.21.179-.364.403-.742.671-1.132l.788-1.133.796-1.142.98.672-.682.95c-.224.314-.448.63-.672.95l.058.058c.147-.064.313-.096.499-.096.333 0 .65.09.95.269s.547.429.74.749c.191.32.287.69.287 1.113 0 .435-.108.823-.326 1.162a2.322 2.322 0 0 1-.854.797 2.33 2.33 0 0 1-1.133.288zm-.029-1.152c.199 0 .381-.045.547-.135.166-.096.3-.224.403-.384.109-.166.164-.355.164-.566a.984.984 0 0 0-.164-.567 1.038 1.038 0 0 0-.412-.384 1.057 1.057 0 0 0-.538-.144c-.185 0-.365.048-.538.144-.166.09-.304.218-.412.384-.103.16-.154.349-.154.567 0 .211.051.4.154.566.108.16.246.288.412.384.167.09.346.135.538.135z"/></svg>