<?xml version="1.0" encoding="UTF-8"?>
<svg id="Layer_7" data-name="Layer 7" xmlns="http://www.w3.org/2000/svg" viewBox="0 0 24 24">
  <path id="path" d="M19.2,15.753l-3.447,3.447H4.8V4.8h14.4V15.753ZM4.8,3c-.99,0-1.8,.81-1.8,1.8v14.4c0,.99,.81,1.8,1.8,1.8h11.7l4.5-4.5V4.8c0-.99-.81-1.8-1.8-1.8H4.8Z"/>
  <path id="path_18" data-name="path 18" d="M9.3102,14.85v-4.9248l-.9888,.72-.6336-.9696,1.9296-1.392h.9504v6.5664h-1.2576Zm3.9126,.1536l-1.056-.5856,2.736-4.896-.0384-.0576h-3.0144v-1.1808h4.464v1.2384c-.5118,.909-1.0272,1.821-1.5456,2.736-.5184,.915-1.0332,1.8306-1.5456,2.7456Z"/>
</svg>