<?xml version="1.0" encoding="UTF-8"?>
<svg id="Layer_7" data-name="Layer 7" xmlns="http://www.w3.org/2000/svg" viewBox="0 0 24 24">
  <path id="path" d="M19.2,15.753l-3.447,3.447H4.8V4.8h14.4V15.753ZM4.8,3c-.99,0-1.8,.81-1.8,1.8v14.4c0,.99,.81,1.8,1.8,1.8h11.7l4.5-4.5V4.8c0-.99-.81-1.8-1.8-1.8H4.8Z"/>
  <path id="path_24" data-name="path 24" d="M7.0938,14.85v-1.1424l.2304-.2304,.5184-.5184,.6432-.6432c.2238-.2238,.4254-.429,.6048-.6144,.1794-.1854,.3102-.3198,.3936-.4032,.2238-.243,.381-.4482,.4704-.6144,.0894-.1662,.1344-.3582,.1344-.576,0-.2112-.0798-.3966-.24-.5568-.1602-.1602-.384-.24-.672-.24s-.5118,.0834-.672,.2496c-.1602,.1662-.2718,.3522-.336,.5568l-1.1328-.4704c.0702-.237,.195-.4704,.3744-.7008,.1854-.2304,.4254-.4224,.72-.576,.3006-.1602,.6558-.24,1.0656-.24,.4482,0,.8322,.0864,1.152,.2592,.3264,.1728,.576,.4032,.7488,.6912,.1794,.288,.2688,.6114,.2688,.9696,0,.4098-.099,.7872-.2976,1.1328-.192,.3456-.4386,.6624-.7392,.9504-.1152,.1152-.2496,.2466-.4032,.3936l-.4512,.4512c-.147,.1536-.285,.2946-.4128,.4224-.1278,.1218-.2274,.2178-.2976,.288l.0288,.0576h2.6592v1.104H7.0938Zm7.5714,.1536c-.5316,0-1.0146-.141-1.4496-.4224-.4356-.288-.7362-.723-.9024-1.3056l1.1904-.4704c.1596,.6528,.5472,.9792,1.1616,.9792,.2688,0,.5052-.0798,.7104-.24,.2046-.1662,.3072-.381,.3072-.6432,0-.2814-.1092-.5022-.3264-.6624-.2178-.1602-.5058-.24-.864-.24h-.5664v-1.1424h.5184c.2622,0,.4956-.0672,.7008-.2016,.2046-.1344,.3072-.3426,.3072-.624,0-.2178-.0804-.3966-.24-.5376-.1536-.141-.3588-.2112-.6144-.2112-.282,0-.4992,.0768-.6528,.2304s-.2592,.3234-.3168,.5088l-1.1424-.4704c.0768-.2178,.2046-.435,.384-.6528,.1788-.2178,.4128-.4002,.7008-.5472s.6336-.2208,1.0368-.2208c.4224,0,.7902,.0768,1.104,.2304,.3198,.1536,.5694,.3648,.7488,.6336,.1788,.2622,.2688,.5598,.2688,.8928,0,.3774-.09,.6882-.2688,.9312-.1728,.243-.3618,.4158-.5664,.5184v.0768c.3006,.1218,.5532,.3168,.7584,.5856,.2112,.2688,.3168,.6078,.3168,1.0176,0,.3774-.096,.717-.288,1.0176-.192,.3006-.4608,.5376-.8064,.7104-.3456,.1728-.7488,.2592-1.2096,.2592Z"/>
</svg>