<svg data-name="Layer 7" xmlns="http://www.w3.org/2000/svg" viewBox="0 0 24 24"><path d="M19.2 15.753L15.753 19.2H4.8V4.8h14.4v10.953zM4.8 3C3.81 3 3 3.81 3 4.8v14.4c0 .99.81 1.8 1.8 1.8h11.7l4.5-4.5V4.8c0-.99-.81-1.8-1.8-1.8H4.8z"/><path data-name="path 31" d="M8.764 15.004a2.613 2.613 0 0 1-1.45-.423c-.436-.288-.736-.723-.902-1.305l1.19-.47c.16.652.547.978 1.162.978.268 0 .505-.08.71-.24a.792.792 0 0 0 .307-.643.778.778 0 0 0-.326-.662c-.218-.16-.506-.24-.864-.24h-.567v-1.143h.519c.262 0 .495-.067.7-.201.205-.135.308-.343.308-.624a.686.686 0 0 0-.24-.538c-.154-.14-.359-.211-.615-.211-.282 0-.499.077-.652.23-.154.154-.26.324-.317.51L6.584 9.55c.077-.218.205-.435.384-.653.18-.218.413-.4.701-.547.288-.147.634-.221 1.037-.221.422 0 .79.077 1.104.23.32.154.57.365.749.634.179.262.269.56.269.893 0 .377-.09.688-.27.931-.172.243-.361.416-.566.518v.077c.301.122.554.317.759.586.211.269.317.608.317 1.017 0 .378-.096.717-.288 1.018s-.461.538-.807.71c-.345.173-.749.26-1.21.26zm5.974 0c-.564 0-1.053-.151-1.469-.452-.41-.3-.727-.71-.95-1.228-.225-.519-.336-1.104-.336-1.757s.111-1.239.336-1.757c.223-.518.54-.928.95-1.229.416-.3.905-.451 1.469-.451.563 0 1.05.15 1.459.451.416.3.736.71.96 1.229.224.518.336 1.104.336 1.757s-.112 1.238-.336 1.757a2.896 2.896 0 0 1-.96 1.228c-.41.301-.896.452-1.46.452zm0-1.181c.313 0 .582-.1.806-.298.224-.198.394-.467.509-.806.121-.34.182-.723.182-1.152a3.44 3.44 0 0 0-.182-1.162c-.115-.339-.285-.605-.509-.797a1.175 1.175 0 0 0-.806-.297 1.16 1.16 0 0 0-.797.297c-.224.192-.397.458-.518.797a3.605 3.605 0 0 0-.173 1.162c0 .429.057.813.173 1.152.12.339.294.608.518.806.224.199.49.298.797.298z"/></svg>