<?xml version="1.0" encoding="UTF-8"?>
<svg id="Layer_7" data-name="Layer 7" xmlns="http://www.w3.org/2000/svg" viewBox="0 0 24 24">
  <path id="path" d="M19.2,15.753l-3.447,3.447H4.8V4.8h14.4V15.753ZM4.8,3c-.99,0-1.8,.81-1.8,1.8v14.4c0,.99,.81,1.8,1.8,1.8h11.7l4.5-4.5V4.8c0-.99-.81-1.8-1.8-1.8H4.8Z"/>
  <path id="path_21" data-name="path 21" d="M6.597,14.85v-1.1424l.2304-.2304c.141-.141,.3132-.3138,.5184-.5184l.6432-.6432c.2238-.2238,.4254-.429,.6048-.6144,.1788-.1854,.3102-.3198,.3936-.4032,.2238-.243,.381-.4482,.4704-.6144,.0894-.1662,.1344-.3582,.1344-.576,0-.2112-.0804-.3966-.24-.5568-.1602-.1602-.384-.24-.672-.24s-.5118,.0834-.672,.2496c-.1602,.1662-.2718,.3522-.336,.5568l-1.1328-.4704c.0702-.237,.195-.4704,.3744-.7008,.1854-.2304,.4254-.4224,.72-.576,.3006-.1602,.6558-.24,1.0656-.24,.4476,0,.8322,.0864,1.152,.2592,.3264,.1728,.576,.4032,.7488,.6912,.1788,.288,.2688,.6114,.2688,.9696,0,.4098-.099,.7872-.2976,1.1328-.192,.3456-.4386,.6624-.7392,.9504-.1152,.1152-.2496,.2466-.4032,.3936-.1476,.147-.2976,.2976-.4512,.4512-.147,.1536-.285,.2946-.4128,.4224-.1278,.1218-.2274,.2178-.2976,.288l.0288,.0576h2.6592v1.104H6.597Zm8.0706,.1536c-.5634,0-1.053-.1506-1.4688-.4512-.4098-.3006-.7266-.7104-.951-1.2288-.2238-.5184-.336-1.104-.336-1.7568s.1122-1.2384,.336-1.7568c.2244-.5184,.5412-.9282,.951-1.2288,.4158-.3006,.9054-.4512,1.4688-.4512,.5628,0,1.0494,.1506,1.4586,.4512,.4164,.3006,.7362,.7104,.96,1.2288,.2244,.5184,.3366,1.104,.3366,1.7568s-.1122,1.2384-.3366,1.7568c-.2238,.5184-.5436,.9282-.96,1.2288-.4092,.3006-.8958,.4512-1.4586,.4512Zm0-1.1808c.3132,0,.582-.099,.8058-.2976,.2244-.1986,.3942-.4674,.5094-.8064,.1212-.339,.1818-.723,.1818-1.152,0-.435-.0606-.8226-.1818-1.1616-.1152-.339-.285-.6048-.5094-.7968-.2238-.1986-.4926-.2976-.8058-.2976-.3072,0-.573,.099-.7974,.2976-.2238,.192-.3966,.4578-.5178,.7968-.1152,.339-.1734,.7266-.1734,1.1616,0,.429,.0582,.813,.1734,1.152,.1212,.339,.294,.6078,.5178,.8064,.2244,.1986,.4902,.2976,.7974,.2976Z"/>
</svg>