<?xml version="1.0" encoding="UTF-8"?>
<svg id="Layer_7" data-name="Layer 7" xmlns="http://www.w3.org/2000/svg" viewBox="0 0 24 24">
  <path id="path" d="M19.2,15.753l-3.447,3.447H4.8V4.8h14.4V15.753ZM4.8,3c-.99,0-1.8,.81-1.8,1.8v14.4c0,.99,.81,1.8,1.8,1.8h11.7l4.5-4.5V4.8c0-.99-.81-1.8-1.8-1.8H4.8Z"/>
  <path id="path_27" data-name="path 27" d="M7.0518,14.85v-1.1424l.2304-.2304c.1404-.141,.3132-.3138,.5184-.5184l.6432-.6432c.2238-.2238,.4254-.429,.6048-.6144,.1788-.1854,.3102-.3198,.3936-.4032,.2238-.243,.3804-.4482,.4704-.6144,.0894-.1662,.1344-.3582,.1344-.576,0-.2112-.0804-.3966-.24-.5568-.1602-.1602-.384-.24-.672-.24s-.5124,.0834-.672,.2496c-.1602,.1662-.2724,.3522-.336,.5568l-1.1328-.4704c.0702-.237,.195-.4704,.3744-.7008,.1854-.2304,.4254-.4224,.72-.576,.3006-.1602,.6558-.24,1.0656-.24,.4476,0,.8316,.0864,1.152,.2592,.3264,.1728,.576,.4032,.7488,.6912,.1788,.288,.2688,.6114,.2688,.9696,0,.4098-.0996,.7872-.2976,1.1328-.192,.3456-.4386,.6624-.7392,.9504-.1152,.1152-.2496,.2466-.4032,.3936-.1476,.147-.2976,.2976-.4512,.4512-.1476,.1536-.285,.2946-.4128,.4224-.1284,.1218-.2274,.2178-.2976,.288l.0288,.0576h2.6592v1.104H7.0518Zm7.638,.1536c-.3648,0-.6972-.0642-.9984-.192-.294-.1344-.5436-.3102-.7488-.528-.4092-.429-.6144-.9534-.6144-1.5744,0-.4416,.0864-.8448,.2592-1.2096,.1794-.3648,.4032-.7422,.672-1.1328,.2628-.3774,.525-.7554,.7872-1.1328,.2688-.384,.5346-.765,.7968-1.1424l.9792,.672c-.2238,.3138-.4512,.6306-.6816,.9504-.2238,.3138-.4476,.6306-.672,.9504l.0576,.0576c.1476-.0642,.3138-.096,.4992-.096,.333,0,.6498,.0894,.9504,.2688,.3012,.1794,.5472,.429,.7392,.7488,.192,.3198,.288,.6912,.288,1.1136,0,.435-.1086,.8226-.3264,1.1616-.2172,.339-.5022,.6048-.8544,.7968-.3516,.192-.7296,.288-1.1328,.288Zm-.0288-1.152c.1986,0,.381-.045,.5472-.1344,.1668-.096,.3012-.2238,.4032-.384,.1092-.1662,.1632-.3552,.1632-.5664,0-.2178-.054-.4062-.1632-.5664-.102-.1662-.24-.2946-.4128-.384-.1662-.096-.3456-.144-.5376-.144-.1854,0-.3648,.048-.5376,.144-.1662,.0894-.3036,.2178-.4128,.384-.102,.1602-.1536,.3486-.1536,.5664,0,.2112,.0516,.4002,.1536,.5664,.1092,.1602,.2466,.288,.4128,.384,.1668,.0894,.3456,.1344,.5376,.1344Z"/>
</svg>